<?xml version="1.0" encoding="UTF-8" standalone="no"?>
<!DOCTYPE svg PUBLIC "-//W3C//DTD SVG 1.1//EN" "http://www.w3.org/Graphics/SVG/1.1/DTD/svg11.dtd">
<svg width="100%" height="100%" viewBox="0 0 300 388" version="1.1" xmlns="http://www.w3.org/2000/svg" xmlns:xlink="http://www.w3.org/1999/xlink" xml:space="preserve" xmlns:serif="http://www.serif.com/" style="fill-rule:evenodd;clip-rule:evenodd;stroke-linejoin:round;stroke-miterlimit:2;">
    <g transform="matrix(1,0,0,1,-2274.64,-890.661)">
        <g id="Layer1">
        </g>
        <g id="Layer2">
        </g>
        <g id="Layer3">
        </g>
        <g id="Layer4">
        </g>
        <g id="Layer5">
        </g>
        <g id="Layer6">
            <path d="M2421.53,978.035C2430.76,976.416 2438.46,977.014 2444.83,978.869C2465.29,984.828 2472.47,1003.95 2472.85,1010.19C2473.84,1026.59 2470.04,1038.85 2463.88,1047.76C2454.43,1061.39 2439.29,1067.32 2425.82,1067.92C2415.82,1068.37 2406.78,1065.81 2401.42,1061.64C2386.91,1050.36 2380.72,1038.69 2379.39,1027.96C2377.36,1011.63 2386.68,997.011 2397.49,987.871C2405.57,981.043 2414.5,977.455 2419.98,977.71C2420.52,977.736 2421.05,977.849 2421.53,978.035ZM2412.53,989.647C2409.8,991.021 2406.83,993.043 2403.93,995.49C2395.45,1002.66 2387.7,1013.93 2389.29,1026.73C2390.37,1035.43 2395.79,1044.62 2407.55,1053.77C2411.44,1056.8 2418.11,1058.28 2425.37,1057.96C2436.07,1057.48 2448.17,1052.9 2455.68,1042.08C2460.8,1034.67 2463.72,1024.43 2462.89,1010.79C2462.62,1006.25 2456.92,992.78 2442.04,988.447C2435.2,986.454 2426.5,986.423 2415.57,989.702C2414.53,990.012 2413.48,989.971 2412.53,989.647Z" style="fill:rgb(67,85,118);"/>
            <path d="M2390.69,1057.74C2390.48,1057.84 2389.98,1058.1 2389.66,1058.33C2388.28,1059.31 2386.8,1060.85 2385.21,1062.76C2376.61,1073.14 2366.16,1093.88 2361.49,1111.09C2359.44,1118.63 2358.41,1125.43 2359.55,1130.13C2359.87,1131.45 2360.31,1132.56 2361.23,1133.18C2362.23,1133.87 2363.62,1133.9 2365.4,1133.64C2366.44,1133.48 2368.84,1133.73 2372.21,1132.27C2376.35,1130.48 2381.76,1126.22 2388.17,1116.52C2395.23,1105.85 2403.17,1089.01 2411.46,1062.48C2412.25,1059.95 2414.87,1058.49 2417.43,1059.13C2420,1059.77 2421.61,1062.3 2421.12,1064.89C2413.26,1106.35 2417.36,1129.69 2424.46,1140.7C2426.3,1143.55 2428.27,1145.43 2430.25,1146.32C2431.4,1146.84 2432.5,1147 2433.4,1146.58C2436.34,1145.2 2438.34,1142.16 2439.94,1138.32C2441.91,1133.57 2443.1,1127.62 2443.73,1121.17C2445.72,1101.05 2442.28,1076.09 2437.7,1065.1C2436.64,1062.56 2437.85,1059.64 2440.39,1058.58C2442.93,1057.52 2445.85,1058.72 2446.91,1061.26C2452.73,1075.22 2457.04,1109.86 2452.04,1132.7C2449.58,1143.89 2444.68,1152.29 2437.65,1155.6C2431.89,1158.31 2422.93,1156.72 2416.08,1146.11C2410.93,1138.12 2406.74,1124.26 2406.99,1102.64C2394.51,1129.55 2383.34,1138.33 2376.17,1141.43C2371.55,1143.43 2368.31,1143.29 2366.88,1143.5C2362.03,1144.23 2358.35,1143.29 2355.61,1141.43C2352.8,1139.51 2350.83,1136.49 2349.86,1132.49C2348.42,1126.56 2349.28,1117.97 2351.86,1108.47C2356.9,1089.91 2368.25,1067.59 2377.53,1056.4C2380.28,1053.07 2382.94,1050.66 2385.22,1049.33C2387.74,1047.86 2390.08,1047.5 2392.05,1047.86C2394.75,1048.36 2396.55,1050.97 2396.05,1053.67C2395.57,1056.23 2393.23,1057.97 2390.69,1057.74Z" style="fill:rgb(67,85,118);"/>
            <path d="M2377.7,1022.61C2380.18,1021.4 2383.17,1022.43 2384.38,1024.9C2385.59,1027.38 2384.56,1030.37 2382.09,1031.58C2376.87,1034.13 2359.07,1039.38 2342.87,1049.01C2332.81,1054.98 2323.3,1062.64 2318.45,1072.66C2315.74,1078.27 2314.36,1082.31 2314.12,1085.22C2314.08,1085.77 2314.08,1086.26 2314.14,1086.69C2314.17,1086.88 2314.14,1087.06 2314.26,1087.15C2315.43,1087.95 2317.24,1087.6 2319.2,1087.37C2324.27,1086.77 2330,1085.06 2333.72,1084.81C2354.15,1083.45 2359.47,1074.34 2373.72,1062.94C2375.87,1061.22 2379.01,1061.57 2380.73,1063.72C2382.45,1065.87 2382.1,1069.01 2379.95,1070.73C2363.85,1083.61 2357.47,1093.23 2334.38,1094.77C2331.54,1094.96 2327.45,1096.11 2323.45,1096.82C2320.11,1097.41 2316.83,1097.71 2314.11,1097.36C2309.68,1096.78 2306.44,1094.65 2304.91,1090.63C2303.46,1086.81 2303.89,1079.86 2309.48,1068.31C2315.14,1056.61 2326.02,1047.41 2337.77,1040.43C2354.28,1030.62 2372.39,1025.21 2377.7,1022.61Z" style="fill:rgb(67,85,118);"/>
            <path d="M2299.5,1021.83C2300.64,1022.3 2304.61,1023.9 2309.13,1025.27C2323.6,1029.64 2349.96,1035.17 2369.12,1025.59C2371.59,1024.36 2374.58,1025.36 2375.82,1027.82C2377.05,1030.29 2376.05,1033.28 2373.59,1034.51C2352.07,1045.27 2322.48,1039.73 2306.24,1034.82C2300.62,1033.12 2296.58,1031.51 2295,1030.75L2292.96,1029.41C2287.35,1023.8 2285.34,1018.58 2285.49,1014.14C2285.66,1009.3 2288.3,1004.94 2293.21,1001.42C2300.2,996.427 2312.41,993.027 2326.19,991.737C2346.22,989.862 2369.51,992.308 2383.74,999.212C2386.21,1000.41 2387.25,1003.4 2386.05,1005.88C2384.84,1008.35 2381.86,1009.39 2379.38,1008.19C2360.98,999.253 2325.77,998.898 2306.43,1005.86C2303,1007.1 2300.1,1008.55 2298.03,1010.3C2296.65,1011.46 2295.65,1012.7 2295.49,1014.19C2295.23,1016.5 2296.69,1018.92 2299.5,1021.83Z" style="fill:rgb(67,85,118);"/>
            <path d="M2362.51,954.417C2359.84,947.317 2357.79,938.786 2356.74,928.293C2355.21,912.975 2359.39,905.047 2364.72,901.862C2368.43,899.65 2373.05,899.296 2378.03,900.784C2383.98,902.561 2390.6,907.098 2396.17,913.225C2411.73,930.338 2415.03,941.677 2417.61,954.267C2419.19,961.952 2420.44,970.158 2424.53,980.787C2425.52,983.356 2424.23,986.244 2421.66,987.233C2419.1,988.221 2416.21,986.937 2415.22,984.368C2410.89,973.102 2409.51,964.417 2407.84,956.272C2405.55,945.116 2402.58,935.097 2388.79,919.935C2385.22,916.008 2381.16,912.836 2377.24,911.111C2374.47,909.888 2371.85,909.226 2369.84,910.427C2368.6,911.17 2367.79,912.615 2367.2,914.655C2366.32,917.739 2366.12,921.897 2366.66,927.301C2368.63,946.977 2374.56,959.05 2381.39,967.765C2389.73,974.65 2396.68,981.805 2401.14,987.634C2402.76,989.745 2402.43,992.751 2400.4,994.469C2398.38,996.187 2395.36,996.014 2393.54,994.075C2387.98,988.145 2380.83,982.746 2374.26,974.777C2366.73,968.651 2358.04,962.801 2349.11,958.555C2337.59,953.074 2325.69,950.147 2315.6,953.64C2314.52,954.014 2314.63,955.05 2314.84,956.186C2315.25,958.331 2316.36,960.785 2317.86,963.395C2324.21,974.411 2337.47,987.66 2345.25,991.201C2347.76,992.341 2348.87,995.301 2347.73,997.807C2346.59,1000.31 2343.63,1001.42 2341.12,1000.28C2330.55,995.471 2311.1,975.474 2306.13,961.913C2304.4,957.196 2304.35,953.038 2305.74,949.975C2306.9,947.436 2308.96,945.38 2312.33,944.213C2324.67,939.944 2339.31,942.847 2353.4,949.547C2356.47,951.009 2359.52,952.648 2362.51,954.417Z" style="fill:rgb(67,85,118);"/>
            <path d="M2416.29,940.377C2416.95,943.049 2415.32,945.757 2412.65,946.421C2409.98,947.085 2407.27,945.455 2406.61,942.783C2405.67,938.99 2405.91,932.608 2407.39,925.577C2409.49,915.567 2414.01,904.205 2419.86,897.549C2425.3,891.345 2431.88,888.869 2438.84,891.929C2453.45,898.36 2457.68,910.247 2456.94,924.528C2456.9,925.251 2456.85,925.98 2456.79,926.716C2460.57,921.368 2464.58,916.776 2468.65,913.279C2475.79,907.148 2483.25,904.269 2490.11,905.281C2494.94,905.993 2499.63,908.564 2503.82,913.683C2504.61,914.646 2505.6,915.925 2506.32,917.962C2507.23,920.518 2507.8,924.549 2506.02,931.414C2504.4,937.642 2500.7,946.754 2493.08,960.246C2488.74,967.951 2468.66,990.945 2464.72,995.866C2463,998.016 2459.86,998.365 2457.71,996.645C2455.56,994.926 2455.21,991.784 2456.93,989.635C2460.73,984.887 2480.2,962.779 2484.4,955.345C2491.39,942.953 2494.88,934.624 2496.37,928.904C2497.92,922.936 2496.96,921.05 2496.1,920C2493.78,917.171 2491.32,915.543 2488.65,915.149C2484.26,914.502 2479.72,916.923 2475.15,920.846C2461.2,932.834 2448.3,959.063 2444.09,982.922C2443.62,985.574 2441.13,987.375 2438.47,986.993C2435.8,986.61 2433.92,984.181 2434.22,981.505C2435.82,967.115 2443,949.007 2445.91,932.787C2448.35,919.153 2447.93,906.829 2434.82,901.06C2432.76,900.154 2430.88,900.921 2429.16,902.346C2427.37,903.831 2425.76,905.961 2424.29,908.422C2420.57,914.667 2417.9,922.974 2416.69,930.03C2415.96,934.273 2415.7,938.012 2416.29,940.377Z" style="fill:rgb(67,85,118);"/>
            <path d="M2533.7,950.727C2531.97,951.023 2528.83,951.643 2526.28,952.603C2510.99,958.371 2483.11,978.521 2480.88,980.146C2480.37,981.96 2478.86,983.412 2476.88,983.737C2474.16,984.183 2471.59,982.34 2471.15,979.623L2471.17,977.604L2471.87,975.649C2472.45,974.532 2473.74,972.933 2475.74,971.124C2484.09,963.566 2507.34,949.085 2522.76,943.269C2528.62,941.059 2533.58,940.175 2536.63,940.687L2538.97,941.382L2541.27,942.94L2542.22,944.082L2542.92,945.386L2543.54,948.094C2544.2,958.539 2543.38,965.17 2540.95,970.641C2537.46,978.479 2530.34,983.983 2517.6,995.191C2511.77,1000.32 2499.07,1006.07 2488.45,1011.12C2482.33,1014.02 2476.94,1016.56 2474.79,1018.71C2472.84,1020.66 2469.68,1020.66 2467.74,1018.71C2465.79,1016.76 2465.79,1013.6 2467.74,1011.66C2470.36,1009.04 2476.72,1005.64 2484.17,1002.1C2493.91,997.479 2505.67,992.403 2511.01,987.702C2522.16,977.891 2528.78,973.446 2531.83,966.585C2533.6,962.619 2534.03,957.855 2533.7,950.727Z" style="fill:rgb(67,85,118);"/>
            <path d="M2554.53,1019.52C2554.44,1017.21 2553.1,1015.46 2551.12,1014.08C2547.75,1011.73 2542.87,1010.31 2537.46,1009.37C2521.58,1006.64 2501.22,1008.48 2495.92,1010.24C2495.91,1010.25 2495.89,1010.25 2495.88,1010.26C2493.91,1011.58 2491.22,1011.35 2489.51,1009.59C2487.59,1007.62 2487.64,1004.46 2489.62,1002.54C2490.31,1001.87 2492.38,1000.71 2495.76,1000C2504.02,998.285 2523.55,996.855 2539.15,999.543C2546.19,1000.75 2552.45,1002.84 2556.83,1005.89C2562.29,1009.71 2565.21,1014.93 2564.39,1021.78L2563.97,1023.38L2563.07,1024.95C2562.32,1025.98 2560.89,1027.33 2558.79,1028.76C2549.77,1034.88 2525.76,1044.54 2504.59,1042.05C2501.92,1041.74 2486.05,1043.32 2470.55,1040.28L2469.08,1041.14C2466.7,1042.53 2463.65,1041.73 2462.26,1039.35C2460.87,1036.97 2461.68,1033.91 2464.05,1032.53L2467.18,1030.7C2468.27,1030.07 2469.55,1029.87 2470.78,1030.14C2486.41,1033.62 2503.05,1031.82 2505.76,1032.14C2518.31,1033.62 2531.99,1030.16 2542.01,1026.14C2547.86,1023.8 2552.43,1021.35 2554.53,1019.52Z" style="fill:rgb(67,85,118);"/>
            <path d="M2474.96,1128.47C2474.54,1128.19 2473.28,1127.37 2472.09,1126.55C2463.98,1121.01 2444.97,1106.12 2440.26,1077.83C2439.8,1075.11 2441.64,1072.54 2444.36,1072.09C2447.07,1071.63 2449.64,1073.47 2450.1,1076.19C2454.7,1103.8 2475.1,1116.61 2479.96,1119.81C2481.06,1120.53 2481.71,1121.08 2481.94,1121.33C2484.7,1124.27 2486.88,1125.8 2488.96,1125.55C2490.72,1125.35 2491.93,1123.76 2493,1121.88C2496.28,1116.14 2497.25,1106.87 2495.2,1100.43C2486.29,1072.41 2468.79,1064.92 2455.97,1056.38C2453.68,1054.85 2453.06,1051.75 2454.59,1049.46C2456.12,1047.17 2459.22,1046.55 2461.51,1048.08C2475.76,1057.57 2494.8,1066.26 2504.71,1097.41C2507.4,1105.86 2506.29,1117.89 2502.22,1125.8C2498.78,1132.48 2493.32,1136.28 2486.9,1135.43C2483.39,1134.97 2479.3,1132.99 2474.96,1128.47Z" style="fill:rgb(67,85,118);"/>
            <path d="M2493.81,1036.26C2494.49,1036.3 2506.5,1037.07 2510.46,1037.97C2515.26,1039.07 2537.09,1052.18 2548.85,1064.52C2552.77,1068.64 2555.59,1072.74 2556.72,1076.26C2557.86,1079.79 2557.55,1082.96 2555.93,1085.65C2554.52,1087.98 2551.92,1090.12 2547.49,1091.41C2542.82,1092.77 2535.52,1093.3 2524.85,1092.41C2505.99,1090.84 2499.37,1087.02 2493.97,1083.68C2491.09,1081.91 2488.69,1080.2 2484.11,1079.29C2481.41,1078.75 2479.66,1076.12 2480.2,1073.42C2480.74,1070.72 2483.37,1068.97 2486.07,1069.51C2492.14,1070.72 2495.39,1072.84 2499.21,1075.2C2503.83,1078.06 2509.55,1081.13 2525.67,1082.47C2533.27,1083.1 2538.87,1083.01 2542.83,1082.27C2544.11,1082.04 2545.18,1081.74 2546.05,1081.36C2546.66,1081.09 2547.16,1080.87 2547.4,1080.48C2547.53,1080.25 2547.4,1079.98 2547.33,1079.69C2547.23,1079.27 2547.06,1078.83 2546.85,1078.37C2545.84,1076.19 2543.95,1073.84 2541.62,1071.4C2534.21,1063.62 2522.39,1055.42 2514.5,1050.84C2511.59,1049.16 2509.35,1047.95 2508.24,1047.7C2505.18,1047 2499.12,1046.93 2495.05,1046.52C2492.28,1046.24 2490.14,1045.65 2489.14,1045.08C2487.93,1044.39 2487.38,1043.94 2486.72,1043.83C2485.96,1043.71 2485.17,1043.95 2483.58,1044.14C2480.85,1044.46 2478.37,1042.5 2478.05,1039.77C2477.73,1037.03 2479.68,1034.55 2482.42,1034.23C2485.37,1033.88 2486.87,1033.76 2488.28,1033.98C2489.75,1034.21 2491.18,1034.78 2493.81,1036.26Z" style="fill:rgb(67,85,118);"/>
            <path d="M2392.87,1033.43C2392.15,1036.03 2389.49,1037.6 2386.86,1036.95C2384.19,1036.29 2382.55,1033.58 2383.22,1030.91C2383.7,1028.95 2384.25,1027.76 2386.48,1025.73C2389.22,1023.23 2396.46,1018.12 2417.54,998.732C2426.89,990.129 2428.16,991.974 2437.76,983.747C2439.85,981.955 2443,982.197 2444.79,984.288C2446.58,986.378 2446.34,989.529 2444.25,991.32C2434.78,999.434 2433.51,997.59 2424.29,1006.07C2406.09,1022.82 2398.13,1028.99 2394.49,1032C2393.82,1032.55 2393.13,1033.18 2392.87,1033.43Z" style="fill:rgb(67,85,118);"/>
            <path d="M2395.61,1047.74C2393.61,1049.63 2390.45,1049.55 2388.55,1047.55C2386.66,1045.55 2386.74,1042.39 2388.74,1040.5C2391.98,1037.43 2425.74,1005.45 2429.71,1002.55C2431.52,1001.23 2445.12,988.34 2448.18,984.795C2449.98,982.712 2453.14,982.481 2455.22,984.28C2457.3,986.08 2457.53,989.232 2455.73,991.315C2452.4,995.173 2437.56,1009.17 2435.6,1010.6C2431.72,1013.44 2398.77,1044.73 2395.61,1047.74Z" style="fill:rgb(67,85,118);"/>
            <path d="M2405.98,1057.13C2404.07,1059.11 2400.91,1059.17 2398.93,1057.27C2396.94,1055.36 2396.88,1052.2 2398.79,1050.21C2426.88,1020.99 2426.86,1021.24 2455.47,992.615C2457.42,990.668 2460.58,990.668 2462.53,992.615C2464.48,994.561 2464.48,997.722 2462.53,999.669C2433.98,1028.22 2434,1027.97 2405.98,1057.13Z" style="fill:rgb(67,85,118);"/>
            <path d="M2467.7,1010.91C2467.56,1011.05 2467.21,1011.4 2466.89,1011.75C2460.43,1018.59 2429.95,1052.43 2421.75,1063.52C2420.12,1065.74 2416.99,1066.2 2414.78,1064.57C2412.57,1062.93 2412.1,1059.81 2413.73,1057.59C2422.07,1046.31 2453.06,1011.86 2459.64,1004.89C2460.58,1003.9 2461.2,1003.33 2461.38,1003.19L2462.63,1002.47C2465.18,1001.44 2468.09,1002.69 2469.11,1005.25C2469.93,1007.29 2469.3,1009.56 2467.7,1010.91Z" style="fill:rgb(67,85,118);"/>
            <path d="M2440.69,1059.74C2440.07,1062.42 2437.39,1064.1 2434.71,1063.48C2432.03,1062.86 2430.36,1060.17 2430.98,1057.49C2431.54,1055.06 2433.04,1052.82 2436.03,1049.91C2440.76,1045.3 2450.09,1037.58 2464.53,1016.3C2466.07,1014.02 2469.18,1013.42 2471.45,1014.97C2473.73,1016.52 2474.33,1019.62 2472.78,1021.9C2459.79,1041.04 2450.74,1049.73 2445.3,1054.86C2443.96,1056.12 2442.85,1057.15 2441.98,1058.07C2441.36,1058.72 2440.83,1059.14 2440.69,1059.74Z" style="fill:rgb(67,85,118);"/>
            <path d="M2432.44,1152.7C2432.98,1152.81 2433.52,1153.01 2434.02,1153.31C2436.38,1154.71 2437.16,1157.78 2435.75,1160.14L2434.71,1161.39L2434.03,1161.79C2433.8,1162.65 2433.59,1163.67 2433.36,1164.85C2432.55,1169.16 2431.95,1175.09 2431.46,1182C2429.52,1209.86 2429.57,1253.11 2426.88,1273.32C2426.51,1276.05 2424,1277.97 2421.27,1277.61C2418.54,1277.24 2416.62,1274.73 2416.99,1272C2419.66,1251.93 2419.58,1208.98 2421.51,1181.3C2422.42,1168.29 2424.05,1158.41 2426.18,1154.85L2427.22,1153.61L2428.72,1152.7L2430.92,1152.36L2432.38,1152.67L2432.44,1152.7ZM2428.96,1162.05L2428.48,1161.83C2428.64,1161.91 2428.8,1161.99 2428.96,1162.05ZM2432.97,1152.94L2433.44,1153.17C2433.29,1153.08 2433.13,1153.01 2432.97,1152.94ZM2429.55,1152.98C2428.61,1153.33 2427.8,1153.99 2427.18,1155.03C2427.75,1154.08 2428.59,1153.38 2429.55,1152.98Z" style="fill:rgb(67,85,118);"/>
            <path d="M2417.05,1268.85C2417.98,1264.16 2420.35,1251.69 2423.66,1230.69C2426.1,1215.25 2430.3,1163.01 2431.44,1155.01C2431.83,1152.28 2434.35,1150.38 2437.08,1150.77C2439.8,1151.16 2441.7,1153.68 2441.32,1156.41C2440.18,1164.43 2435.96,1216.77 2433.52,1232.25C2429.39,1258.36 2427.44,1269.51 2426.35,1273.3C2425.99,1274.53 2425.63,1275.31 2425.36,1275.78L2423.89,1277.45L2422.57,1278.18L2421.35,1278.48L2419.68,1278.4L2418.28,1277.87L2417.23,1277.12L2416.4,1276.14L2415.47,1274.03C2414.91,1272.09 2415.6,1270.08 2417.05,1268.85Z" style="fill:rgb(67,85,118);"/>
            <path d="M2431.16,1264.33C2430.97,1264.93 2430.78,1265.52 2430.59,1266.11C2429.75,1268.73 2426.94,1270.18 2424.32,1269.34C2421.7,1268.51 2420.25,1265.7 2421.08,1263.08C2433.19,1225.14 2463.66,1179.54 2487.55,1166.35C2489.1,1165.5 2515.13,1144.52 2533.69,1139.88C2543.5,1137.42 2564.46,1128.09 2567.08,1126.92C2569.12,1126.02 2571.53,1126.58 2572.95,1128.31C2574.37,1130.04 2574.47,1132.5 2573.19,1134.34C2571.01,1137.47 2550.66,1170.5 2544.08,1175.84C2543.38,1176.41 2523.44,1197.16 2514.07,1206.19C2511.18,1208.97 2509.01,1210.75 2508.32,1211.12C2493.85,1218.81 2487.65,1228.21 2450.85,1249.52C2449.22,1250.46 2447.75,1252.3 2446.3,1254.15C2444.31,1256.67 2442.44,1259.31 2440.71,1261.12C2439.33,1262.57 2437.94,1263.59 2436.67,1264.14L2434.58,1264.74L2432.08,1264.63C2431.76,1264.56 2431.46,1264.46 2431.16,1264.33ZM2436.28,1250.82C2439.17,1247.04 2442.45,1242.85 2445.85,1240.88C2482.64,1219.59 2489.02,1210.14 2503.4,1202.43C2503.73,1202.15 2505.49,1200.6 2507.15,1199C2516.71,1189.8 2537.07,1168.68 2537.79,1168.1C2541.52,1165.06 2549.84,1152.52 2556.33,1142.34C2549.24,1145.23 2541.22,1148.28 2536.11,1149.55C2518.44,1153.97 2493.85,1174.27 2492.37,1175.09C2473.11,1185.71 2449.68,1219.07 2436.28,1250.82Z" style="fill:rgb(67,85,118);"/>
            <path d="M2551.05,1137.97C2553.38,1136.5 2556.47,1137.2 2557.93,1139.53C2559.4,1141.86 2558.7,1144.94 2556.38,1146.41C2555.57,1146.91 2555.62,1146.97 2498.92,1192.7C2478.81,1208.92 2463.65,1226.68 2460.88,1229.92C2449.21,1243.6 2448.28,1242.83 2439.61,1258.44C2438.27,1260.85 2435.23,1261.72 2432.82,1260.38C2430.42,1259.04 2429.55,1256 2430.89,1253.6C2440.04,1237.12 2440.97,1237.88 2453.3,1223.45C2456.16,1220.1 2471.85,1201.72 2492.66,1184.94C2550.25,1138.49 2550.24,1138.48 2551.05,1137.97Z" style="fill:rgb(67,85,118);"/>
            <path d="M2275.21,1147.02C2273.93,1144.58 2274.88,1141.57 2277.32,1140.29C2279.76,1139.02 2282.78,1139.97 2284.05,1142.41C2296.6,1166.47 2329.57,1204.26 2342.01,1213.04C2369.02,1232.11 2387.43,1237.16 2401.39,1242.18C2411.72,1245.89 2419.8,1249.68 2427.12,1257.91C2428.94,1259.96 2428.76,1263.12 2426.7,1264.95C2424.64,1266.78 2421.49,1266.59 2419.66,1264.53C2413.54,1257.65 2406.66,1254.67 2398.02,1251.56C2383.49,1246.35 2364.36,1241.03 2336.25,1221.19C2323.18,1211.96 2288.41,1172.32 2275.21,1147.02Z" style="fill:rgb(67,85,118);"/>
            <path d="M2282.73,1140.08C2283.24,1140.13 2287.58,1140.53 2291.78,1140.79C2305.37,1141.6 2328.21,1143.6 2344.52,1154.04C2366.08,1167.83 2369.14,1163.71 2388.21,1185.08C2410.58,1210.17 2419.45,1230.22 2425.44,1240.91C2426.54,1242.86 2427.5,1244.46 2428.47,1245.64C2428.86,1246.12 2429.13,1246.57 2429.54,1246.71C2432.15,1247.58 2433.57,1250.41 2432.7,1253.02C2431.83,1255.63 2429,1257.04 2426.39,1256.17C2423.28,1255.14 2420.12,1251.8 2416.74,1245.79C2410.94,1235.45 2402.42,1216.01 2380.76,1191.72C2362.66,1171.43 2359.61,1175.54 2339.14,1162.44C2324.33,1152.96 2303.52,1151.48 2291.18,1150.74C2287.12,1150.5 2283.9,1150.33 2281.93,1150.07C2280.38,1149.85 2279.28,1149.5 2278.65,1149.18C2276.18,1147.94 2275.18,1144.95 2276.42,1142.48C2277.59,1140.15 2280.35,1139.13 2282.73,1140.08Z" style="fill:rgb(67,85,118);"/>
            <path d="M2415.39,1256.65C2415.3,1256.56 2415.16,1256.4 2415.04,1256.28C2410.78,1251.89 2390.68,1233.13 2386.21,1230.62C2379.07,1226.62 2356.74,1205.99 2333.7,1189.14C2319.23,1178.56 2304.55,1169.39 2293.46,1167.75C2290.74,1167.35 2288.86,1164.81 2289.26,1162.08C2289.66,1159.36 2292.2,1157.48 2294.92,1157.88C2307.17,1159.69 2323.6,1169.4 2339.59,1181.09C2362.22,1197.63 2384.07,1217.99 2391.08,1221.92C2395.35,1224.31 2412.99,1240.34 2420.05,1247.2C2421.59,1248.69 2422.66,1249.79 2423.07,1250.28L2424.07,1251.88C2425.09,1254.43 2423.84,1257.34 2421.29,1258.36C2419.12,1259.23 2416.7,1258.46 2415.39,1256.65Z" style="fill:rgb(67,85,118);"/>
        </g>
    </g>
</svg>
