<?xml version="1.0" encoding="UTF-8" standalone="no"?>
<!DOCTYPE svg PUBLIC "-//W3C//DTD SVG 1.1//EN" "http://www.w3.org/Graphics/SVG/1.1/DTD/svg11.dtd">
<svg width="100%" height="100%" viewBox="0 0 243 402" version="1.1" xmlns="http://www.w3.org/2000/svg" xmlns:xlink="http://www.w3.org/1999/xlink" xml:space="preserve" xmlns:serif="http://www.serif.com/" style="fill-rule:evenodd;clip-rule:evenodd;stroke-linejoin:round;stroke-miterlimit:2;">
    <g transform="matrix(1,0,0,1,-2336.43,-465.978)">
        <g id="Layer1">
        </g>
        <g id="Layer2">
        </g>
        <g id="Layer3">
            <path d="M2458.81,488.175C2464.9,494.656 2467.16,501.956 2469.88,514.679C2471.78,523.524 2471.79,523.517 2473.34,529.308C2479.55,552.489 2470.16,554.396 2464.78,573.847C2462.92,580.568 2462.66,584.454 2456.11,605.013C2451.38,619.868 2449.95,624.165 2454.29,641.164C2458.55,657.848 2449.04,666.146 2437.5,662.433C2426.06,658.75 2414.08,644.05 2407.51,631.646C2374.95,570.111 2423.29,486.626 2431.78,478.154C2432.6,477.336 2433.43,476.826 2434.24,476.562C2434.65,476.125 2435.13,475.62 2435.68,475.038L2435.5,475.051C2440.31,474.498 2446.36,474.532 2447.93,474.918C2453.46,476.274 2456.69,484.221 2458.81,488.175ZM2432.06,482.568C2432.01,482.55 2431.95,482.532 2431.9,482.514L2431.96,482.619L2432.06,482.568ZM2437.4,484.543C2427.89,495.633 2375.8,589.291 2427.13,644.797C2436.09,654.48 2443.25,656.407 2445.49,653.794C2445.92,653.3 2447.98,650.662 2446.09,643.254C2440.5,621.362 2443.75,616.656 2450.11,595.892C2456.26,575.788 2455.62,571.833 2460.42,560.908C2465.58,549.167 2469.48,547.032 2464.88,530.44C2460.7,515.407 2460.08,501.579 2452.68,493.999C2450.87,492.152 2450.42,489.719 2447.82,485.607C2446.81,484.006 2446.15,483.405 2445.85,483.168C2444.72,483.128 2441.83,483.054 2438.65,483.262C2438.15,483.824 2437.65,484.393 2437.56,484.486C2437.52,484.533 2437.49,484.555 2437.4,484.543Z" style="fill:rgb(67,85,118);"/>
            <path d="M2433.49,503.385C2433.16,502.603 2432.82,501.78 2432.82,501.776C2434.18,498.507 2433.95,497.502 2437.49,497.557C2437.88,497.563 2442.16,497.321 2443.4,500.849C2444.51,503.966 2441.99,506.295 2440.36,508.336C2431.68,519.176 2431.44,531.36 2430.96,540.297C2427.07,612.834 2434.98,612.675 2447.05,653.521C2447.55,655.197 2446.83,656.516 2446.71,656.743C2446.7,656.758 2444.19,658.783 2444.18,658.782C2443.11,658.666 2441.92,658.944 2440.97,658.429C2439.05,657.377 2439.28,657.066 2438.65,654.959C2426.49,614.063 2418.16,614.031 2422.82,534.373C2423.83,517.089 2429.89,507.956 2433.49,503.385ZM2437.05,506.018C2437.04,506.018 2437.04,506.018 2437.05,506.018Z" style="fill:rgb(67,85,118);"/>
            <path d="M2431.08,605.741C2429.4,605.984 2429.31,605.955 2427.95,604.934C2426.21,603.63 2426.46,603.369 2426.16,601.214C2420.85,562.2 2434.18,542.036 2434.86,524.839C2434.92,523.1 2436.01,522.08 2436.2,521.904C2436.21,521.892 2439.23,520.758 2439.24,520.761C2442.47,522.23 2443.45,522.052 2443.3,525.599C2442.47,544.139 2429.48,562.872 2434.55,600.072C2434.84,602.196 2435.15,602.373 2433.86,604.089C2432.84,605.449 2432.77,605.499 2431.08,605.741Z" style="fill:rgb(67,85,118);"/>
            <path d="M2436.7,636.706C2435.01,636.94 2434.92,636.912 2433.57,635.886C2431.93,634.65 2432.11,634.432 2431.83,632.401C2430.14,620.084 2425.89,582.259 2434.61,558.232C2435.52,555.713 2436.38,553.929 2436.49,553.684C2437.23,552.105 2438.66,551.596 2438.9,551.508C2438.92,551.503 2442.14,551.664 2442.14,551.67C2442.87,552.468 2443.94,553.056 2444.3,554.068C2445.01,556.071 2444.65,556.142 2443.79,558.084C2442.77,560.382 2435.13,576.089 2438.7,617.655C2439.41,625.931 2440.31,631.92 2440.31,631.942C2439.55,634.822 2439.64,634.857 2439.49,635.063C2438.46,636.421 2438.38,636.472 2436.7,636.706Z" style="fill:rgb(67,85,118);"/>
            <path d="M2439.09,637.032C2437.4,637.221 2437.32,637.192 2435.99,636.132C2434.38,634.853 2434.57,634.636 2434.33,632.599C2432.42,616.551 2427.51,598.311 2441.51,575.819C2442.43,574.334 2443.9,573.998 2444.16,573.94C2444.17,573.936 2447.35,574.475 2447.36,574.482C2447.98,575.359 2448.98,576.069 2449.22,577.117C2449.72,579.307 2449.27,579.322 2448.11,581.247C2436.43,600.571 2441.01,616.677 2442.82,632.345C2443.02,634.081 2442.08,635.259 2441.92,635.461C2441.76,635.664 2440.83,636.838 2439.09,637.032Z" style="fill:rgb(67,85,118);"/>
            <path d="M2447.53,649.017C2445.92,649.581 2445.83,649.571 2444.29,648.834C2442.54,647.994 2442.61,647.805 2441.97,645.972C2440.4,641.441 2432.09,616.808 2444.47,595.056C2446.1,592.199 2447.67,590.158 2447.98,589.738C2449.03,588.343 2450.53,588.137 2450.78,588.102C2450.8,588.099 2453.92,588.916 2453.93,588.924C2454.47,589.852 2455.4,590.647 2455.54,591.712C2455.83,593.815 2455.46,593.812 2454.22,595.532C2450.97,600.044 2443.12,612.405 2447.58,634.495C2448.49,638.983 2449.86,642.906 2450.12,643.621C2450.68,645.228 2450.67,645.318 2449.93,646.853C2449.2,648.388 2449.13,648.452 2447.53,649.017Z" style="fill:rgb(67,85,118);"/>
            <path d="M2422.35,523.398C2423.99,527.264 2429.07,536.47 2430,571.869L2430.03,573.004C2429.64,574.007 2429.6,575.232 2428.85,576.011C2428.84,576.023 2425.89,577.326 2425.88,577.323C2424.88,576.934 2423.66,576.892 2422.88,576.15C2422.1,575.406 2421.9,574.222 2421.56,573.201C2421.41,572.723 2421.55,543.121 2415.49,528.826C2414.41,526.289 2412.57,523.392 2414.71,520.023C2414.86,519.792 2415.74,518.411 2417.53,518.063C2417.55,518.06 2420.71,518.702 2420.71,518.709C2421.3,519.604 2422.27,520.346 2422.48,521.399C2422.61,522.074 2422.52,522.777 2422.35,523.398Z" style="fill:rgb(67,85,118);"/>
            <path d="M2413.74,542.008C2425.08,556.806 2428.14,577.962 2429.05,585.07C2429.28,586.804 2428.35,587.992 2428.19,588.197C2428.18,588.21 2425.38,589.805 2425.37,589.802C2424.34,589.517 2423.11,589.598 2422.26,588.938C2420.62,587.659 2420.83,587.429 2420.56,585.365C2417.83,564.513 2411.23,552.631 2407.18,547.34C2406.07,545.888 2405.24,545.235 2404.99,543.723C2404.43,540.165 2408.53,537.236 2411.89,539.782C2413.07,540.682 2413.6,541.315 2413.74,542.008Z" style="fill:rgb(67,85,118);"/>
            <path d="M2429.42,613.664C2427.82,614.242 2427.73,614.234 2426.19,613.51C2425.21,613.053 2424.53,612.07 2424.01,611.13C2423.56,610.334 2418.66,595.061 2413.86,585.398C2410.02,577.671 2401.85,564.485 2401.82,564.298C2401.67,563.232 2401.1,562.144 2401.37,561.102C2401.37,561.085 2403.3,558.503 2403.31,558.502C2404.38,558.349 2405.47,557.784 2406.51,558.05C2407.55,558.316 2408.41,559.152 2409.1,559.977C2409.36,560.294 2414.97,569.901 2415.47,570.767C2423.41,584.365 2424.94,588.822 2431.96,608.245C2432.05,608.488 2432.56,609.887 2431.81,611.48C2431.09,613.021 2431.02,613.086 2429.42,613.664Z" style="fill:rgb(67,85,118);"/>
            <path d="M2435.18,619.723C2434.05,620.994 2433.95,621.018 2432.25,621.099C2431.94,621.114 2430.34,621.19 2428.7,619.526C2426.13,616.913 2426.79,615.13 2402.37,589.187C2401.16,587.901 2401.14,587.911 2401.13,587.875C2400.75,586.869 2399.96,585.93 2399.99,584.855C2399.99,584.838 2401.31,581.896 2401.32,581.893C2402.32,581.51 2403.26,580.721 2404.34,580.752C2405.41,580.782 2406.37,581.492 2407.28,582.064C2407.46,582.174 2413.59,588.797 2414.13,589.386C2433.28,610.069 2433.36,612.326 2434.91,613.758C2436.18,614.93 2436.25,616.424 2436.27,616.682C2436.35,618.376 2436.31,618.458 2435.18,619.723Z" style="fill:rgb(67,85,118);"/>
            <path d="M2438.36,642.358C2436.91,643.258 2436.82,643.269 2435.17,642.886C2433,642.386 2433.16,642.006 2431.97,640.13C2420.59,622.13 2417.53,624.044 2403.22,607.784C2402.07,606.472 2402.17,604.97 2402.19,604.711C2402.19,604.694 2403.62,601.804 2403.62,601.801C2404.64,601.457 2405.61,600.705 2406.68,600.777C2408.85,600.921 2408.77,601.29 2410.21,602.915C2423.56,617.995 2427.02,616.346 2439.7,636.521C2440.63,638 2440.29,639.467 2440.23,639.72C2440.18,639.972 2439.84,641.434 2438.36,642.358Z" style="fill:rgb(67,85,118);"/>
            <path d="M2414.35,626.579C2414.57,626.419 2414.84,626.218 2415.25,625.936C2418.32,629.393 2429.42,637.543 2431.78,639.608C2440.22,646.975 2439.33,651.4 2442.09,653.026C2442.64,653.35 2443.29,653.592 2443.29,653.594C2444.06,654.341 2445.18,654.852 2445.61,655.838C2445.62,655.853 2445.69,659.072 2445.68,659.078C2444.94,659.854 2444.43,660.97 2443.45,661.403C2441.57,662.23 2441.45,662.027 2439.56,661.213C2432.83,658.309 2433.24,653.837 2429.51,649.311C2426.11,645.189 2421.86,642.937 2413.35,635.713C2408.75,631.804 2406.72,629.724 2407.46,626.767C2407.54,626.46 2408,624.626 2410.11,623.842C2410.13,623.835 2413.08,623.944 2413.34,623.954C2413.56,623.962 2413.49,624.088 2414.35,626.579ZM2415.33,629.311C2415.36,629.395 2415.4,629.481 2415.43,629.568L2415.5,629.378L2415.33,629.311Z" style="fill:rgb(67,85,118);"/>
            <path d="M2511.66,480.971C2507.19,483.103 2503.72,487.43 2503.37,487.748C2500.83,490.011 2497.59,488.546 2497.14,488.34C2493.01,486.473 2486.68,479.819 2482.29,482.722C2480.86,483.671 2477.7,487.385 2476.44,489.85C2473.39,495.821 2474.62,504.195 2473.5,537.894C2473.44,539.64 2472.34,540.665 2472.15,540.842C2472.14,540.853 2469.12,541.984 2469.11,541.981C2468.13,541.535 2466.91,541.422 2466.18,540.636C2465.44,539.849 2465.26,538.669 2465.04,537.616C2465.03,537.593 2465.28,531.233 2465.46,521.468C2465.99,492.94 2464.93,488.955 2474.58,478.295C2482.72,469.312 2492.72,475.616 2494.55,476.712C2496.7,477.999 2498.03,479.004 2499.24,479.799C2511.03,467.977 2523.01,469.043 2531.01,479.956C2534.33,484.473 2536.41,489.952 2536.52,490.416C2536.76,491.397 2536.82,494.02 2534.02,495.309C2531.75,496.352 2524.73,498.595 2501.34,517.579C2491.53,525.534 2495.07,528.212 2475.58,561.602C2475.51,561.717 2474.93,562.714 2474.69,562.996C2473.25,564.711 2470.6,564.982 2468.84,563.595C2467.92,562.871 2466.51,560.918 2467.67,558.381C2467.73,558.24 2479.77,534.507 2483.86,520.178C2485.6,514.085 2484.85,513.139 2485.93,510.392C2487.37,506.721 2490.84,505.952 2493.38,507.415C2493.61,507.543 2493.82,507.688 2494.03,507.848C2500.74,498.689 2510.14,496.727 2513.04,496.088C2512.46,493.022 2509.76,487.197 2511.66,480.971Z" style="fill:rgb(67,85,118);"/>
            <path d="M2450.06,654.95C2447.68,655.477 2447.62,655.576 2447.52,655.421C2446.92,654.527 2445.94,653.789 2445.73,652.734C2445.18,650.002 2447.2,648.583 2447.51,648.366C2450.23,646.458 2453.25,648.163 2458.19,650.104C2470.21,654.827 2480.13,656.089 2489.51,651.279C2514.1,638.666 2515.91,616.461 2516.3,614.077C2521.44,582.824 2536.95,582.915 2524.03,495.957C2523.71,493.749 2523.34,493.56 2524.66,491.765C2524.68,491.752 2527.44,490.091 2527.45,490.093C2528.49,490.354 2529.71,490.242 2530.58,490.883C2531.44,491.523 2531.78,492.674 2532.25,493.645C2532.34,493.833 2533.47,502.171 2533.58,502.913C2544.76,584.79 2529.06,586.249 2524.43,616.879C2521.16,638.475 2506.52,652.528 2492.23,659.377C2474.15,668.046 2455.04,657.546 2449.85,655.956C2449.86,655.918 2449.96,655.504 2450.06,654.95ZM2453.26,654.28L2453.34,654.337L2453.4,654.252C2453.35,654.261 2453.3,654.271 2453.26,654.28Z" style="fill:rgb(67,85,118);"/>
            <path d="M2531.05,489.747C2531.24,488.057 2531.29,487.98 2532.62,486.918C2534.22,485.638 2534.38,485.871 2536.42,486.083C2543.79,486.851 2547.15,486.861 2554.29,497.079C2557.87,502.202 2558.77,503.999 2559.61,507.315C2563.54,522.834 2552.72,546.591 2549.79,579.411C2549.12,586.873 2545.95,626.813 2520.16,651.403C2502.99,667.772 2483.62,669.365 2476.76,659.713C2475.69,658.204 2475.6,658.117 2475.95,656.298C2475.95,656.282 2477.73,653.59 2477.74,653.588C2481.07,652.91 2481.68,652.15 2483.71,654.879C2488.23,660.953 2512,656.434 2527.98,627.082C2539.94,605.103 2541.05,581.079 2541.78,574.399C2545.34,541.947 2556.6,516.213 2549.91,505.758C2543.46,495.664 2541.52,495.438 2540.41,495.142C2538.8,494.714 2534.89,494.481 2534.78,494.419C2532.17,492.982 2532.12,493.056 2531.95,492.855C2531.79,492.652 2530.86,491.479 2531.05,489.747Z" style="fill:rgb(67,85,118);"/>
            <path d="M2463.25,637.359C2462.01,634.957 2460.71,632.167 2459.04,627.843C2458.88,627.431 2457.55,623.969 2457.14,622.661C2455.99,618.913 2459.49,616.237 2462.49,617.245C2464.21,617.826 2464.5,619.068 2467.56,621.657C2469.51,623.303 2471.33,624.247 2473.16,625.266C2472.67,623.674 2472.06,621.778 2471.24,619.112C2469.67,613.974 2469.64,613.764 2469.59,613.283C2469.28,610.611 2471.6,608.286 2474.27,608.589C2474.87,608.658 2475.31,608.78 2476.18,609.327C2474.48,604.958 2472.56,600.193 2470.59,595.507C2470.39,595.044 2470.18,594.586 2470,594.117C2468.84,591.152 2470.97,588.504 2473.48,588.256C2473.76,588.228 2475.39,588.067 2476.79,589.379C2476.99,589.57 2477.88,590.703 2478.98,592.16C2478.5,590.691 2477.95,589.035 2477.3,587.093C2477.24,586.927 2476.71,585.354 2476.66,585.007C2476.31,582.796 2477.83,580.624 2480.03,580.197C2480.31,580.143 2481.92,579.83 2483.43,581.009C2483.56,581.105 2485.18,582.677 2487.85,585.993C2488.05,584.082 2489.56,582.48 2491.49,582.219C2491.82,582.174 2493.88,581.896 2495.37,583.789C2495.53,583.979 2495.66,584.183 2495.78,584.398C2495.81,584.47 2495.85,584.545 2495.88,584.621C2496.19,584.907 2496.48,585.172 2496.76,585.43C2494.48,579.434 2491.91,575.963 2488.84,571.162C2487.11,568.474 2486.34,566.958 2485.82,565.938C2484.81,563.938 2485.59,561.395 2487.55,560.314C2488.77,559.648 2491.49,559.209 2493.23,561.861C2494.12,563.221 2495.64,566.308 2500.3,572.268C2501.56,573.89 2502.57,575.189 2503.47,576.423C2505.49,563.853 2505.09,560.419 2500.3,549.591C2497.98,544.359 2497.81,544.403 2497.72,543.328C2497.51,541.088 2499.2,539.015 2501.43,538.749C2503.35,538.52 2504.57,539.629 2504.78,539.818C2505.39,540.38 2507.22,543.018 2509.35,546.239C2509.51,535.811 2512.04,531.811 2513.07,529.878C2518.54,519.53 2523.16,515.876 2528.26,516.659C2528.53,516.7 2530.14,516.947 2531.18,518.396C2531.19,518.409 2531.93,521.548 2531.93,521.555C2531.36,522.47 2531.09,523.667 2530.22,524.295C2530.13,524.357 2527.33,524.985 2527.08,525.041C2527.04,525.05 2527.02,525.051 2527,525.046C2526.7,525.201 2526.39,525.436 2526.06,525.737C2528.48,527.152 2528.56,529.588 2528.81,533.941C2528.92,535.916 2529.12,540.166 2529.27,543.249C2529.51,543.705 2529.69,544.23 2529.77,544.823C2529.86,545.46 2530.48,551.361 2530.53,551.93C2531.04,556.731 2531.08,559.179 2530.49,566.484C2530.46,566.822 2530.44,567.16 2530.4,567.496C2530.13,569.842 2528.43,571.153 2526.62,571.34C2526.32,572.868 2525.52,575.341 2523.97,581.289C2523.94,581.424 2523.62,582.644 2523.47,582.966C2522.95,584.139 2521.91,584.961 2520.72,585.288C2520.67,585.448 2520.63,585.593 2520.59,585.718C2520.16,587.043 2519.23,587.939 2518.14,588.377C2517.71,590.732 2517.36,592.708 2517.26,593.304C2517.07,594.402 2516.61,595.237 2516,595.833C2516.11,596.3 2516.24,596.784 2516.37,597.287C2517,599.727 2520.71,613.989 2523.96,627.864C2525.25,633.364 2525.49,634.367 2524.72,635.922C2524.02,637.339 2522.49,638.286 2520.91,638.279C2520.69,638.279 2519.48,638.273 2518.34,637.402C2517.09,636.439 2516.84,635.666 2515,629.275C2514.55,627.704 2514.01,625.781 2513.41,623.64C2513.35,623.648 2513.28,623.655 2513.21,623.659C2513.24,625.389 2512.29,626.759 2510.99,627.463C2511.07,628.014 2511.09,628.444 2511.07,628.793C2510.95,630.728 2509.74,632.346 2508.16,633.074C2508.73,634.835 2509.1,635.98 2509.26,636.541C2510.14,639.539 2507.87,641.982 2505.37,642.061C2505.08,642.07 2504.81,642.051 2504.56,642.011C2503.85,644.303 2501.84,645.639 2499.66,645.401C2499.58,646.261 2499.3,647.001 2498.79,647.713C2497.6,649.353 2495.8,649.773 2494.07,649.546C2494.89,652.744 2494.98,653.24 2494.41,654.544C2493.46,656.71 2490.9,657.606 2488.84,656.716C2488.61,657.123 2488.32,657.513 2487.94,657.881C2487.48,658.322 2485.5,659.789 2483.13,659.218C2481.89,661.519 2480.58,663.424 2479.38,664.286C2476.71,666.207 2474.26,664.66 2473.35,664.138C2467.5,660.785 2463.54,654.181 2458.41,644.171C2458.35,644.044 2457.77,642.916 2457.66,642.555C2456.99,640.381 2458.24,637.98 2460.4,637.281C2460.65,637.202 2461.87,636.808 2463.25,637.359ZM2493.53,604.826C2492.99,604.396 2491.84,603.409 2490.5,602.142C2491.03,604.501 2491.62,607.291 2492.45,611.125C2492.51,611.117 2492.56,611.11 2492.62,611.104C2492.57,610.926 2492.51,610.749 2492.46,610.572C2492.34,610.144 2492.2,609.718 2492.09,609.286C2491.61,607.401 2492.32,605.785 2493.53,604.826ZM2513.07,566.572C2513.02,568.058 2512.9,569.643 2512.7,571.384C2512.73,571.383 2512.76,571.383 2512.79,571.383C2512.81,571.383 2512.82,571.384 2512.84,571.384C2513.26,569.466 2513.63,567.977 2513.9,567.21C2513.94,567.103 2513.98,566.999 2514.02,566.899C2513.69,566.83 2513.37,566.722 2513.07,566.572ZM2518.06,542.155C2517.9,543.703 2517.83,545.358 2517.82,547.057C2517.84,547.041 2517.86,547.025 2517.88,547.009C2517.94,545.496 2518,543.881 2518.06,542.155Z" style="fill:rgb(67,85,118);"/>
            <path d="M2510.11,633.485C2510.62,633.978 2511.12,634.479 2511.31,635.137C2511.32,635.153 2510.99,638.361 2510.99,638.366C2508.16,640.671 2507.81,641.724 2504.73,639.771C2502.13,638.123 2501.42,635.272 2499.49,623.831C2499.2,622.108 2500.08,620.886 2500.23,620.675C2500.24,620.661 2502.97,618.954 2502.98,618.956C2504.03,619.2 2505.25,619.068 2506.12,619.693C2508.32,621.26 2507.44,621.853 2509.36,630.689C2509.82,632.804 2510.06,633.362 2510.11,633.485Z" style="fill:rgb(67,85,118);"/>
            <path d="M2479.92,857.184C2478.23,857.442 2478.15,857.416 2476.77,856.409C2475.91,855.772 2475.48,854.657 2475.09,853.653C2475,853.415 2464.28,781.635 2463.7,776.783C2459.62,742.599 2468.53,702.28 2466.6,660.864C2466.52,659.165 2466.56,659.081 2467.7,657.822C2467.71,657.809 2470.62,656.431 2470.63,656.434C2471.65,656.797 2472.87,656.808 2473.67,657.531C2475.3,659.011 2475.01,659.258 2475.1,661.459C2476.97,703.416 2467.64,745.68 2472.52,778.897C2479.01,823.144 2482.1,843.546 2483.46,852.359C2483.72,854.041 2483.69,854.129 2482.68,855.501C2481.68,856.874 2481.6,856.925 2479.92,857.184Z" style="fill:rgb(67,85,118);"/>
            <path d="M2562.12,672.648C2539.71,696.216 2531.11,703.028 2521.72,712.646C2512.37,722.22 2510.79,726.887 2504.67,739.337C2485.57,778.153 2481.7,781.317 2482.57,845.751C2482.59,847.453 2482.55,847.536 2481.37,848.756C2481.35,848.768 2478.39,850.043 2478.38,850.039C2477.38,849.641 2476.16,849.587 2475.39,848.837C2474.62,848.086 2474.4,846.91 2474.1,845.875C2474.05,845.683 2474,835.876 2474,835.006C2473.71,775.507 2479.33,772.391 2501.11,727.311C2511.63,705.526 2520.15,705.671 2565.17,657.038C2565.3,656.905 2566.49,655.62 2566.76,655.409C2568.71,653.9 2571.64,654.427 2572.94,656.524C2573.03,656.666 2573.51,657.444 2573.57,658.527C2573.6,658.995 2572.99,665.902 2570.82,673.162C2563.79,696.671 2547.41,704.329 2524.03,790.979C2517.97,813.448 2513.79,827.238 2509.63,834.452C2507.86,837.537 2507.5,839.017 2505.16,842.428C2501.51,847.753 2499.74,847.649 2497.05,855.599C2496.96,855.844 2496.49,857.247 2494.92,858.031C2494.91,858.038 2491.69,858.269 2491.69,858.263C2490.88,857.558 2489.74,857.105 2489.25,856.142C2488.36,854.361 2488.56,854.246 2489.21,852.36C2493.05,841.175 2496.42,842.194 2500.87,832.903C2502.66,829.161 2504.05,828.556 2508.77,813.575C2514.92,794.014 2519.24,773.512 2529.28,744.71C2538.73,717.603 2546.67,702.883 2552.7,691.981C2557.07,684.094 2560.06,678.763 2562.12,672.648Z" style="fill:rgb(67,85,118);"/>
            <path d="M2561.23,679.181C2561.31,679.198 2561.35,679.208 2561.35,679.208C2561.94,680.111 2562.91,680.862 2563.1,681.92C2563.49,684.005 2563.16,684.035 2561.96,685.78C2541.95,714.833 2537.83,712.061 2521.16,743.044C2493.95,793.597 2497.28,803.762 2485.4,844.826C2485.36,844.96 2485.02,846.145 2484.85,846.484C2483.84,848.537 2481.27,849.424 2479.21,848.427C2478.25,847.963 2476.67,846.602 2476.84,844.206C2477.04,841.462 2478.08,832.377 2478.19,831.35C2480.35,812.47 2482.81,798.377 2485.64,786.967C2488.55,768.144 2496.74,733.003 2520.24,704.298C2520.3,704.218 2521.27,702.786 2522.95,702.414C2524.36,702.102 2525.74,702.551 2526.72,703.446C2535.23,693.119 2544.38,685.199 2555.09,672.765C2555.17,672.677 2556.21,671.198 2557.96,670.883C2560.17,670.486 2562.38,671.965 2562.85,674.156C2563.21,675.851 2562.34,677.258 2562.1,677.707C2561.84,678.171 2561.55,678.663 2561.23,679.181Z" style="fill:rgb(67,85,118);"/>
            <path d="M2444.57,856.111C2439.81,853.541 2423.22,846.818 2419.81,843.332C2418.9,842.404 2419.22,842.14 2409.49,830.815C2390,808.143 2364.74,779.175 2368.66,708.308C2369.18,698.945 2368.58,687.784 2360.44,662.895C2353.54,641.823 2344.47,620.136 2341.9,601.565C2341.88,601.424 2341.75,600.489 2341.89,599.788C2342.43,597.113 2345.41,595.619 2347.87,596.798C2349.11,597.392 2349.73,598.538 2349.83,598.731C2350.77,600.465 2352.23,603.739 2352.43,604.18C2353.36,606.244 2353.86,607.578 2354.22,608.562C2358.65,611.449 2360.78,613.863 2362.68,618.505C2364.1,621.946 2364.33,622.195 2367.07,624.315C2373.56,629.335 2373.04,631.579 2374.46,634.557C2376.59,635.865 2380.05,637.29 2381.85,639.537C2402.02,664.68 2406.33,671.121 2408.26,674.009C2413.47,681.814 2412.3,682.379 2415.4,692.146C2417.76,699.575 2418.41,699.315 2425.33,715.819C2436.2,741.797 2442.42,757.253 2447.09,771.285C2445.43,713.937 2455.52,664.619 2457.97,658.983C2458.08,658.733 2458.72,657.247 2460.42,656.618C2460.44,656.612 2463.66,656.734 2463.67,656.74C2465.92,659.183 2466.89,659.27 2465.72,662.385C2462.86,670.009 2447.25,749.502 2460.88,824.073C2462.06,829.241 2463.34,834.889 2464.77,841.137C2466.17,847.263 2466.26,847.252 2466.3,848.085C2466.42,850.343 2464.64,852.361 2462.39,852.53C2461.24,852.616 2458.85,852.141 2457.99,849.434C2457.4,847.561 2456.09,842.166 2455.94,841.531C2454.65,836.239 2453.52,830.896 2452.54,825.529C2442,779.402 2439.45,771.387 2416.26,716.092C2410.03,701.221 2408.95,701.59 2404.81,685.816C2404.39,684.191 2404.14,682.781 2399.41,676.085C2392.92,666.916 2380.14,650.967 2375.3,644.889C2373.23,643.12 2368.99,641.994 2367.43,639.381C2365.71,636.504 2366.05,635.02 2364.55,633.363C2362.02,630.572 2359.03,629.761 2356.42,625.12C2364.3,649.748 2376.24,676.652 2377.22,700.742C2377.52,708.189 2376.41,713.873 2376.79,728.422C2378.46,792.279 2407.76,813.731 2425.11,836.397C2425.37,836.737 2425.63,837.08 2425.89,837.421C2430.43,840.709 2447.51,847.611 2449.7,849.376C2453.42,852.374 2453.52,852.423 2456.99,853.168C2457.25,853.224 2460.19,853.854 2460.24,853.888C2461.11,854.517 2462.29,854.865 2462.85,855.78C2462.86,855.794 2463.38,858.977 2463.38,858.984C2462.75,859.856 2462.4,861.03 2461.48,861.596C2459.78,862.648 2459.65,862.435 2457.7,861.988C2454.56,861.268 2452.58,860.991 2450.55,860.115C2448.17,859.086 2445.99,857.266 2444.57,856.111Z" style="fill:rgb(67,85,118);"/>
            <path d="M2373.56,660.927C2373.16,656.476 2372.95,656.377 2373.19,656.257C2374.14,655.765 2374.99,654.877 2376.06,654.788C2376.45,654.756 2378.79,654.563 2380.28,657.194C2382.99,661.987 2407.29,721.613 2409.65,736.945C2417.41,787.498 2416.27,808.902 2444.01,832.582C2447.64,835.683 2450.85,838.036 2450.87,838.054C2451.41,838.981 2452.35,839.773 2452.5,840.838C2452.5,840.855 2451.7,843.977 2451.69,843.982C2450.76,844.528 2449.97,845.464 2448.9,845.615C2446.96,845.889 2446.91,845.674 2445.34,844.49C2407.99,816.295 2409.63,792.691 2401.28,738.249C2399.23,724.864 2376.49,668.382 2372.91,661.353L2373.56,660.927ZM2373.66,662.027L2373.56,662.129L2373.67,662.229C2373.67,662.161 2373.66,662.093 2373.66,662.027Z" style="fill:rgb(67,85,118);"/>
            <path d="M2452.34,845.901C2451.3,847.273 2451.22,847.314 2449.51,847.545C2447.37,847.835 2447.35,847.501 2445.64,846.174C2424.77,829.938 2410.26,803.445 2408.1,760.958C2405.4,707.895 2399.71,708.356 2398.03,698.491C2397.9,697.739 2397.8,696.67 2397.81,696.656C2398.11,695.622 2398.1,694.406 2398.8,693.584C2398.81,693.572 2401.68,692.094 2401.68,692.097C2402.71,692.425 2403.93,692.394 2404.75,693.088C2406.78,694.804 2405.94,695.28 2406.53,697.867C2408.12,704.826 2413.92,709.382 2416.53,759.219C2417.54,778.67 2421.21,815.39 2449.61,838.387C2450.64,839.224 2451.54,839.904 2451.54,839.905C2453.05,842.514 2453.14,842.476 2453.18,842.735C2453.41,844.441 2453.39,844.531 2452.34,845.901Z" style="fill:rgb(67,85,118);"/>
            <path d="M2461.47,848.136C2460.68,849.667 2460.59,849.711 2458.94,850.213C2456.94,850.822 2456.85,850.599 2455.04,849.544C2443.19,842.629 2432.38,819.073 2431.27,812.442C2423.9,768.58 2417.47,738.618 2410.59,722.651C2409.38,719.836 2408.38,717.802 2408.02,715.001C2407.79,713.169 2407.75,713.053 2408.9,711.607C2408.91,711.594 2411.76,710.011 2411.77,710.013C2415.11,710.975 2416.04,710.585 2416.53,714.028C2417.3,719.446 2423.29,721.472 2435,784.186C2438.1,800.823 2439.58,810.652 2439.92,811.889C2441.78,818.689 2451.22,837.692 2459.73,842.351C2461.27,843.194 2461.71,844.633 2461.78,844.883C2462.28,846.525 2462.26,846.614 2461.47,848.136Z" style="fill:rgb(67,85,118);"/>
            <path d="M2400.43,715.009C2402.51,721.074 2406.36,732.144 2409.41,762.184C2416,827.004 2449.68,837.454 2458.53,847.089C2458.83,847.418 2459.15,847.802 2459.15,847.806C2459.5,848.837 2460.18,849.856 2460.07,850.939C2460.07,850.956 2458.52,853.827 2458.51,853.829C2455.18,854.821 2454.62,855.621 2452.34,853.01C2446.72,846.593 2419.11,835.994 2406.38,792.289C2401.76,776.446 2401.11,763.941 2399.87,753.819C2396.26,724.586 2391.79,717.6 2391.37,714.549C2391,711.894 2392.57,709.007 2396.43,708.922C2398.3,708.882 2398.42,708.862 2399.73,710.178C2399.75,710.19 2400.99,713.205 2400.99,713.213C2400.76,713.78 2400.63,714.42 2400.43,715.009Z" style="fill:rgb(67,85,118);"/>
            <path d="M2461.83,856.164C2460.56,857.326 2460.47,857.353 2458.75,857.274C2457.66,857.225 2456.72,856.469 2455.79,855.896C2455.79,855.896 2453.62,853.526 2451.66,851.317C2444.99,843.8 2445.29,843.548 2436.02,832.992C2427.23,822.982 2421,801.108 2413.24,791.182C2412.15,789.795 2412.33,788.294 2412.36,788.034C2412.36,788.018 2413.95,785.171 2413.96,785.168C2417.36,784.203 2418.01,783.35 2420.18,786.152C2428.49,796.89 2434.89,818.699 2442.46,827.349C2448.18,833.876 2448.12,833.921 2453.69,840.565C2458.03,845.729 2462.1,850.077 2462.12,850.12C2463.14,852.956 2463.23,852.935 2463.22,853.196C2463.14,854.917 2463.11,855.003 2461.83,856.164Z" style="fill:rgb(67,85,118);"/>
            <path d="M2463.75,846.111C2462.62,847.417 2462.53,847.45 2460.81,847.573C2458.62,847.729 2458.63,847.387 2457,845.916C2442.88,833.18 2412.04,790.638 2407.88,777.305C2406.82,773.91 2407.88,773.862 2410.63,771.615C2410.64,771.61 2413.89,771.939 2413.9,771.947C2416,773.076 2415.55,773.53 2416.42,775.746C2421.54,788.856 2450.3,828.67 2463.32,840.076C2464.65,841.236 2464.75,842.744 2464.77,843.005C2464.89,844.72 2464.87,844.808 2463.75,846.111Z" style="fill:rgb(67,85,118);"/>
            <path d="M2452.43,852.671C2452.49,852.717 2452.54,852.765 2452.59,852.815C2452.6,852.826 2453.85,855.818 2453.85,855.826C2453.43,856.831 2453.36,858.071 2452.59,858.841C2450.76,860.673 2448.53,860.01 2448.18,859.907C2445.8,859.202 2445.3,857.258 2444.53,856.17C2441.36,851.697 2430.91,844.823 2420.34,835.059C2412.7,828 2409.24,823.152 2398.18,810.047C2397.07,808.731 2397.05,808.641 2397.19,806.924C2397.2,806.907 2398.69,804.008 2398.7,804.006C2399.74,803.676 2400.73,802.931 2401.82,803.023C2402.9,803.115 2403.81,803.92 2404.72,804.516C2405.06,804.735 2415.73,818.02 2420.68,823.329C2428.06,831.241 2437.93,838.727 2443.8,843.538C2449.72,848.395 2451.58,851.128 2452.43,852.671ZM2450.3,851.651C2450.16,851.578 2449.93,851.538 2449.56,851.533C2449.45,851.531 2449.78,851.536 2450.3,851.651Z" style="fill:rgb(67,85,118);"/>
            <path d="M2424.62,826.325C2425.34,827.085 2426.33,827.683 2426.68,828.663C2426.68,828.679 2426.52,831.919 2426.51,831.925C2425.7,832.653 2425.1,833.74 2424.08,834.102C2423.77,834.212 2422.08,834.806 2420.01,833.485C2414.93,830.242 2388.03,805.524 2376.66,767.602C2367.23,736.175 2372.51,734.842 2368.18,703.91C2367.89,701.836 2367.64,701.67 2368.9,699.998C2368.91,699.985 2371.72,698.325 2371.72,698.327C2372.78,698.599 2374.01,698.496 2374.89,699.151C2376.56,700.412 2376.37,700.641 2376.66,702.721C2381.05,734.011 2375.87,734.872 2384.65,764.427C2385.37,766.838 2392.1,792.025 2414.35,816.505C2418.58,821.161 2422.62,824.881 2424.64,826.279L2424.62,826.325Z" style="fill:rgb(67,85,118);"/>
        </g>
        <g id="Layer4">
        </g>
        <g id="Layer5">
        </g>
        <g id="Layer6">
        </g>
    </g>
</svg>
