<?xml version="1.0" encoding="UTF-8" standalone="no"?>
<!DOCTYPE svg PUBLIC "-//W3C//DTD SVG 1.1//EN" "http://www.w3.org/Graphics/SVG/1.1/DTD/svg11.dtd">
<svg width="100%" height="100%" viewBox="0 0 234 545" version="1.1" xmlns="http://www.w3.org/2000/svg" xmlns:xlink="http://www.w3.org/1999/xlink" xml:space="preserve" xmlns:serif="http://www.serif.com/" style="fill-rule:evenodd;clip-rule:evenodd;stroke-linejoin:round;stroke-miterlimit:2;">
    <g transform="matrix(1,0,0,1,-1910.37,-1298.39)">
        <g id="Layer4">
            <path d="M2037.22,1389.24C2037.02,1388.41 2037.52,1387.58 2038.35,1387.38C2039.17,1387.18 2040,1387.68 2040.2,1388.51C2043.16,1400.62 2045.05,1423.2 2045.31,1426.24C2045.38,1427.09 2044.75,1427.83 2043.9,1427.9C2043.06,1427.97 2042.31,1427.34 2042.24,1426.5C2041.99,1423.5 2040.14,1401.2 2037.22,1389.24Z" style="fill:rgb(233,226,216);"/>
            <path d="M2035.82,1387.02C2036.52,1384.36 2039.25,1382.77 2041.91,1383.47C2044.58,1384.17 2046.17,1386.9 2045.47,1389.56C2044.95,1391.51 2044.78,1393.3 2048.33,1414.6C2049.61,1422.3 2052.7,1512.27 2050.9,1524.85C2048.93,1538.62 2051.94,1538.61 2037.43,1698.26C2036.7,1706.27 2037.58,1706.01 2036.69,1714.04C2034.4,1734.66 2036.63,1734.62 2033,1755.22C2026.22,1793.63 2034.53,1794.16 2029.01,1832.77C2028.63,1835.43 2028.86,1835.17 2028.68,1837.87C2028.5,1840.62 2026.12,1842.7 2023.38,1842.51C2020.63,1842.33 2018.55,1839.95 2018.73,1837.2C2018.94,1834.12 2018.7,1834.41 2019.13,1831.36C2024.67,1792.59 2016.37,1792.06 2023.17,1753.49C2026.75,1733.21 2024.52,1733.24 2026.78,1712.94C2027.66,1705.01 2026.78,1705.26 2027.5,1697.35C2042.05,1537.24 2039.05,1537.25 2041.03,1523.44C2042.77,1511.21 2039.74,1423.72 2038.49,1416.24C2034.35,1391.44 2035.22,1389.29 2035.82,1387.02Z" style="fill:rgb(233,226,216);"/>
            <path d="M2095.7,1530.33C2095.77,1530.23 2095.85,1530.14 2095.93,1530.05C2101.58,1523.44 2106.7,1520.65 2110.79,1519.72C2119.9,1517.64 2125.42,1523.83 2126.58,1527.31C2128.77,1533.88 2129.78,1538.83 2128.78,1543.81C2127.79,1548.72 2124.83,1553.83 2118.24,1560.52C2117.84,1560.93 2117.43,1561.35 2117,1561.77C2120.59,1561.67 2123.85,1562.48 2126.93,1564.17C2132.12,1567.01 2136.95,1572.73 2141.93,1581.98C2144.23,1586.26 2144.44,1593.56 2140.92,1600.5C2134.28,1613.61 2113.47,1627.25 2070.55,1605.05C2066.92,1620.32 2059.63,1636.07 2053.24,1649.39C2049.12,1657.99 2045.38,1665.53 2043.43,1671.15C2042.88,1672.73 2042.48,1674.12 2042.31,1675.31C2042.25,1675.75 2042.11,1676.11 2042.22,1676.39C2043.19,1678.96 2041.9,1681.85 2039.32,1682.82C2036.75,1683.8 2033.87,1682.5 2032.89,1679.93C2032.25,1678.23 2032.05,1675.95 2032.56,1673.15C2033.33,1668.88 2035.85,1662.77 2039.27,1655.49C2045.53,1642.14 2054.85,1624.42 2059.76,1606.93C2062.82,1596.03 2064.2,1585.24 2061.59,1575.83C2058.94,1566.29 2059.27,1552.17 2061.8,1540.15C2063.56,1531.79 2066.42,1524.46 2069.84,1520.11C2072.44,1516.81 2075.47,1514.99 2078.55,1514.61C2081.75,1514.22 2085.32,1515.22 2088.89,1518.79C2092.16,1522.06 2094.13,1525.2 2095.18,1528.43C2095.39,1529.06 2095.56,1529.69 2095.7,1530.33ZM2072.06,1576.86C2077.32,1560.5 2082.38,1549.83 2084.84,1541.77C2086.08,1537.72 2086.68,1534.53 2085.7,1531.53C2085.07,1529.6 2083.79,1527.8 2081.84,1525.85C2081.11,1525.12 2080.52,1524.58 2079.86,1524.51C2079.09,1524.44 2078.6,1525.19 2077.96,1525.94C2076.97,1527.1 2076.08,1528.63 2075.26,1530.41C2070.12,1541.52 2067.93,1561.38 2071.2,1573.16C2071.54,1574.37 2071.82,1575.61 2072.06,1576.86ZM2075.07,1596.16C2104.95,1611.67 2121.63,1608.3 2129.3,1599.93C2131.97,1597.01 2133.36,1593.58 2133.64,1590.58C2133.78,1589.07 2133.68,1587.69 2133.14,1586.71C2129.37,1579.7 2126.07,1575.08 2122.14,1572.92C2118.06,1570.69 2113.52,1571.76 2107.41,1574.76C2099.63,1578.6 2089.94,1585.6 2077.05,1595.26C2076.44,1595.72 2075.77,1596.01 2075.07,1596.16ZM2082.29,1578.28C2096,1567.23 2105.2,1559.56 2111.13,1553.53C2115.83,1548.76 2118.3,1545.35 2119,1541.85C2119.68,1538.43 2118.65,1535.08 2117.16,1530.59C2117.07,1530.49 2116.63,1530 2116.24,1529.78C2114.82,1528.96 2112.67,1529.1 2109.89,1530.79C2102.52,1535.27 2093.16,1548.16 2082.29,1578.28Z" style="fill:rgb(233,226,216);"/>
            <path d="M2025.75,1758.95C2025.75,1758.88 2025.76,1758.81 2025.77,1758.73C2026.8,1750.97 2032.05,1737.86 2039.07,1724.1C2049.41,1703.8 2063.51,1682.03 2072.27,1673.95C2087.28,1660.09 2097.05,1658.18 2106.01,1656.58C2110.95,1655.69 2115.61,1655.01 2121.05,1651.54C2123.12,1650.21 2125.86,1650.6 2127.48,1652.45C2129.11,1654.3 2129.14,1657.06 2127.55,1658.95C2113.15,1676.12 2111.47,1687.82 2101.93,1703.38C2097.28,1710.99 2070.32,1735.18 2067.89,1736.98C2058.85,1743.69 2052.91,1747.18 2048.36,1750.05C2042.28,1753.88 2039.01,1756.48 2033.38,1765.6C2031.94,1767.94 2028.88,1768.67 2026.54,1767.24C2024.19,1765.81 2023.45,1762.75 2024.87,1760.4C2025.17,1759.91 2025.46,1759.43 2025.75,1758.95ZM2051.08,1722.65C2056.96,1715.74 2062.29,1710.3 2070.18,1700C2073.32,1695.91 2088.54,1679.4 2098.94,1668.51C2093.46,1670.36 2087.15,1673.78 2079.03,1681.28C2071.64,1688.1 2060.36,1705.38 2051.08,1722.65ZM2103.95,1677.7C2093.99,1688.19 2080.95,1702.36 2078.1,1706.07C2068.19,1719 2062.37,1724.15 2054.31,1734.42C2056.59,1732.86 2059.12,1731.07 2061.95,1728.97C2064.19,1727.31 2089.14,1705.17 2093.43,1698.17C2097.94,1690.81 2100.77,1684.3 2103.95,1677.7Z" style="fill:rgb(233,226,216);"/>
            <path d="M1939.38,1623.25C1941.1,1623.73 1942.4,1624.25 1943.61,1625.11C1945.33,1626.32 1946.95,1628.16 1948.93,1631.66C1970.85,1670.44 1997.49,1678.99 2015.06,1690.17C2017.2,1691.53 2019.73,1694.58 2022.02,1698.5C2026.45,1706.08 2030.57,1717 2031.38,1719.85L2031.68,1721.36L2031.63,1722.66L2030.87,1724.6L2030.22,1725.4L2029.23,1726.16L2027.98,1726.69L2026.69,1726.86C2024.13,1726.86 2022.03,1724.93 2021.74,1722.45C2021.29,1721.21 2017.14,1709.92 2013.41,1703.54C2012.1,1701.3 2010.92,1699.36 2009.7,1698.58C1991.17,1686.79 1963.36,1677.46 1940.25,1636.57C1939.29,1634.87 1938.68,1633.84 1937.85,1633.25C1937.21,1632.8 1936.46,1632.69 1935.48,1632.47C1934.28,1632.21 1932.87,1631.94 1931.12,1631.53C1929.08,1631.04 1927.56,1629.34 1927.32,1627.26C1927.07,1625.18 1928.15,1623.16 1930.02,1622.22L1932.62,1620.91C1935.08,1619.67 1938.08,1620.66 1939.32,1623.12C1939.34,1623.16 1939.36,1623.2 1939.38,1623.25ZM2022.8,1718.74C2023.72,1717.61 2025.12,1716.88 2026.69,1716.88C2025.16,1716.88 2023.82,1717.42 2022.8,1718.74Z" style="fill:rgb(233,226,216);"/>
            <path d="M1947.61,1628.54C1944.8,1629.29 1943.04,1629.1 1941.51,1628.75C1940.38,1628.48 1939.54,1627.77 1937.32,1627.97C1934.58,1628.22 1932.15,1626.2 1931.9,1623.46C1931.65,1620.72 1933.67,1618.29 1936.42,1618.04C1938.65,1617.84 1940.2,1618.05 1941.48,1618.36C1942.71,1618.66 1943.3,1619.43 1945.41,1618.79L1947.47,1618.55C1948.73,1618.57 1951.7,1618.83 1955.64,1619.5C1966.97,1621.41 1986.27,1626.87 1995.54,1638.32C1998.3,1641.72 2011.14,1651.53 2022.57,1685.83C2032.17,1714.62 2035.18,1713.66 2037.83,1730.9C2038.25,1733.62 2036.38,1736.17 2033.66,1736.59C2030.94,1737.01 2028.39,1735.14 2027.98,1732.42C2025.41,1715.78 2022.37,1716.76 2013.11,1688.99C2002.42,1656.92 1990.36,1647.78 1987.79,1644.6C1983.91,1639.81 1977.78,1636.49 1971.56,1634.07C1961.6,1630.2 1951.26,1628.76 1947.79,1628.55C1947.74,1628.55 1947.67,1628.54 1947.61,1628.54Z" style="fill:rgb(233,226,216);"/>
            <path d="M1952.42,1631.51C1952.51,1631.57 1952.76,1631.74 1952.93,1631.83C1953.32,1632.02 1953.76,1632.19 1954.24,1632.35C1955.73,1632.84 1957.51,1633.25 1959.47,1633.74C1968.22,1635.95 1980.12,1639.6 1989.7,1655.24C1998.47,1669.54 2010.79,1677.97 2018.74,1686.92C2030.51,1700.16 2028.74,1701.25 2033.08,1713.41C2034.01,1716 2032.65,1718.86 2030.06,1719.79C2027.47,1720.71 2024.61,1719.36 2023.69,1716.77C2019.89,1706.14 2021.57,1705.12 2011.29,1693.55C2003.01,1684.23 1990.32,1675.34 1981.2,1660.45C1972.15,1645.69 1960.39,1644.38 1953.28,1642.46C1948.02,1641.04 1944.61,1638.85 1943.19,1635.3C1942.17,1632.75 1943.42,1629.84 1945.97,1628.82C1948.5,1627.81 1951.37,1629.02 1952.42,1631.51Z" style="fill:rgb(233,226,216);"/>
            <path d="M2020.52,1717.55C2020.36,1714.8 2022.46,1712.44 2025.21,1712.29C2027.96,1712.13 2030.32,1714.23 2030.48,1716.98C2032.27,1748.28 2026.9,1777.25 2028.07,1787.79C2028.37,1790.53 2026.4,1792.99 2023.66,1793.3C2020.93,1793.6 2018.46,1791.63 2018.15,1788.89C2016.98,1778.27 2022.32,1749.09 2020.52,1717.55Z" style="fill:rgb(233,226,216);"/>
            <path d="M1991.08,1682.02C1992.45,1681.36 1994.1,1681.33 1995.55,1682.09C1997.99,1683.35 1998.95,1686.37 1997.68,1688.81L1996.39,1690.46L1995.49,1691.12L1994.23,1691.69C1993.12,1692.05 1991.24,1692.19 1988.68,1691.84C1980.43,1690.71 1959.65,1684.76 1936.79,1697.07C1936.31,1697.33 1935.83,1697.64 1935.44,1697.91C1935.95,1698.58 1936.67,1699.49 1937.31,1700.21C1938.4,1701.44 1939.65,1702.83 1940.94,1704.42C1942.16,1705.94 1945.65,1707.28 1949.32,1708.68C1955.65,1711.1 1962.8,1713.08 1963.96,1713.12C1964.41,1713.13 1983.97,1716.25 2004.96,1711C2007.3,1710.42 2008.71,1709.31 2010.3,1708.61C2013.86,1707.03 2018.01,1706.03 2027.91,1710.78C2030.39,1711.97 2031.44,1714.95 2030.25,1717.44C2029.05,1719.92 2026.07,1720.97 2023.59,1719.77C2019.74,1717.93 2017.47,1717.2 2015.73,1717.34C2014.13,1717.47 2013.14,1718.35 2011.78,1719.02C2010.52,1719.65 2009.11,1720.25 2007.37,1720.68C1984.99,1726.28 1964.12,1723.1 1963.63,1723.09C1962,1723.03 1950.4,1720.15 1942.15,1716.52C1937.99,1714.7 1934.68,1712.55 1933.18,1710.69C1929.83,1706.54 1926.87,1703.66 1925.73,1701.28L1925.2,1699.9L1924.87,1698.29L1924.89,1696.51L1925.34,1694.74C1926.07,1692.8 1927.91,1690.52 1932.06,1688.29C1952.38,1677.34 1971.23,1678.95 1982.88,1680.78C1986.17,1681.3 1989.75,1681.83 1991.08,1682.02Z" style="fill:rgb(233,226,216);"/>
            <path d="M1991.39,1682.88L1991.55,1682.94C1995.48,1684.44 2016.09,1692.07 2028.42,1708.52C2030.07,1710.72 2029.62,1713.85 2027.42,1715.5C2025.22,1717.15 2022.09,1716.71 2020.44,1714.5C2009.63,1700.09 1991.45,1693.58 1988,1692.26L1986.59,1691.62L1985.73,1690.96L1984.68,1689.54L1984.23,1688.1L1984.22,1686.65L1984.68,1685.13C1985.9,1682.66 1988.89,1681.65 1991.36,1682.86C1991.37,1682.87 1991.38,1682.87 1991.39,1682.88ZM1992.83,1683.96C1994.18,1685.43 1994.57,1687.64 1993.63,1689.54C1994.27,1688.26 1994.89,1686.11 1992.83,1683.96Z" style="fill:rgb(233,226,216);"/>
            <path d="M1937.44,1695.59C1938.13,1695.52 1939.44,1695.37 1940.55,1695.2C1946.63,1694.28 1957.26,1692.7 1973.79,1695.29C2002.52,1699.77 2003.19,1696.91 2023.74,1705.6C2026.27,1706.67 2027.46,1709.6 2026.39,1712.14C2025.32,1714.67 2022.39,1715.86 2019.85,1714.79C2000.28,1706.51 1999.61,1709.41 1972.25,1705.14C1952.82,1702.1 1942.19,1705.34 1937.82,1705.59C1937.1,1705.64 1936.48,1705.62 1935.94,1705.57L1934.39,1705.25L1932.87,1704.53L1931.4,1703.2C1929.69,1701.04 1930.06,1697.9 1932.22,1696.19C1933.76,1694.98 1935.78,1694.81 1937.44,1695.59ZM1938.95,1696.69C1939.05,1696.79 1939.14,1696.9 1939.23,1697.01C1939.14,1696.9 1939.05,1696.8 1938.95,1696.69Z" style="fill:rgb(233,226,216);"/>
            <path d="M1990.92,1519.83C1990.9,1519.79 1990.88,1519.76 1990.88,1519.76C1990.88,1519.76 2000.25,1529.16 2006.6,1535.9C2012.06,1541.68 2016.55,1547.38 2017.39,1550.08C2020.7,1560.66 2021.12,1574.23 2020.21,1579.61C2020.01,1580.8 2019.71,1581.76 2019.4,1582.46C2019.8,1591.63 2024.01,1634.66 2025.03,1641.93C2029.61,1674.61 2034.7,1689.62 2033.19,1705.45C2032.93,1708.19 2030.49,1710.2 2027.75,1709.94C2025.01,1709.68 2023,1707.25 2023.26,1704.51C2024.71,1689.24 2019.56,1674.81 2015.15,1643.31C2014.11,1635.88 2009.79,1591.67 2009.42,1582.71C2009.38,1581.62 2009.4,1580.88 2009.44,1580.53L2009.82,1579.03L2010.29,1578.37C2010.35,1577.95 2010.61,1576.14 2010.65,1574.55C2010.82,1568.91 2010.11,1560.19 2007.87,1553.05C2007.69,1552.47 2007.07,1551.7 2006.32,1550.71C2004.59,1548.44 2002.08,1545.64 1999.35,1542.75C1993.61,1536.66 1986.97,1530.23 1984.23,1527.29C1983.05,1526.02 1982.39,1525.04 1982.18,1524.63C1980.95,1522.16 1981.96,1519.16 1984.42,1517.94C1986.76,1516.77 1989.59,1517.62 1990.92,1519.83ZM2012.16,1576.58L2012.59,1576.31C2012.47,1576.35 2012.32,1576.45 2012.16,1576.58ZM2018.42,1583.93L2017.97,1584.47C2018.11,1584.32 2018.25,1584.16 2018.39,1583.98C2018.4,1583.97 2018.41,1583.95 2018.42,1583.93ZM2017.72,1584.7L2016.3,1585.57C2016.77,1585.38 2017.26,1585.11 2017.72,1584.7Z" style="fill:rgb(233,226,216);"/>
            <path d="M2007.81,1570.1C2007.97,1569.52 2008.51,1567.57 2008.66,1566.17C2009.15,1561.59 2008.84,1556.32 2008.79,1555.47C2008.62,1552.72 2010.72,1550.36 2013.47,1550.2C2016.22,1550.04 2018.58,1552.14 2018.74,1554.89C2018.81,1556.04 2019.26,1564.27 2018.17,1570.01C2017.44,1573.91 2015.72,1576.82 2013.82,1578.08C2006.1,1583.23 2000.76,1583.98 1997.03,1583.32C1994.15,1582.8 1991.95,1581.45 1990.16,1579.8C1989.26,1581.68 1988.01,1583.61 1986.19,1585.28C1980.78,1590.28 1975.99,1591.56 1972.3,1590.93C1968.2,1590.24 1964.68,1587.21 1962.49,1581.84C1958.01,1570.85 1959.01,1547.87 1966.08,1527.4C1966.98,1524.8 1969.82,1523.41 1972.42,1524.31C1975.02,1525.21 1976.41,1528.05 1975.51,1530.65C1969.35,1548.5 1967.82,1568.49 1971.73,1578.08C1972.09,1578.96 1972.49,1579.72 1972.97,1580.33C1973.27,1580.7 1973.55,1581.03 1973.96,1581.1C1974.42,1581.18 1974.92,1581 1975.49,1580.75C1976.7,1580.22 1977.99,1579.27 1979.43,1577.95C1981.22,1576.3 1981.77,1574.08 1982.2,1572.55C1982.58,1571.23 1982.93,1570.15 1983.27,1569.48L1984.32,1567.96L1985.89,1566.79L1987.85,1566.23L1989.77,1566.41C1991.41,1566.86 1993.02,1568 1994.53,1569.75C1995.54,1570.91 1996.44,1572.8 1998.43,1573.41C2000.5,1574.05 2003.26,1573.08 2007.81,1570.1Z" style="fill:rgb(233,226,216);"/>
            <path d="M1922.83,1523.26C1921.15,1522.34 1919.39,1521.24 1917.55,1519.92C1916.18,1518.95 1913.96,1515.71 1912.93,1511.37C1911.55,1505.55 1912.16,1498.12 1917.01,1493.82C1919.31,1491.78 1922.7,1490.22 1927.62,1490.13C1927.49,1486.7 1928.31,1483.77 1929.64,1481.28C1932.81,1475.41 1939.39,1471.97 1945.02,1470.61C1949.81,1469.46 1953.93,1470.04 1955.36,1470.81C1958.42,1472.47 1961.04,1474.19 1963.29,1475.98C1962.84,1470.64 1963.49,1465.74 1965.86,1461.41C1968.32,1456.94 1972.64,1452.97 1980.05,1450C1987.11,1447.18 1992.2,1447.64 1995.89,1449.51C1999.52,1451.34 2002.05,1454.71 2003.65,1459C2004.24,1460.6 2004.7,1462.34 2005.07,1464.14C2011.32,1458.68 2016.68,1458.65 2020.47,1460.44C2023.82,1462.02 2026.61,1465.42 2028.49,1469.55C2030.88,1474.83 2031.83,1481.2 2031.62,1484.55C2031.49,1486.67 2031.48,1490.96 2025.91,1497.54C2027.03,1497.78 2028.05,1498.16 2028.93,1498.68C2034.6,1501.98 2037.5,1505.86 2038.92,1509.57C2040.22,1512.94 2040.25,1516.27 2039.74,1519.18L2039.9,1519.21C2043.3,1519.84 2045.95,1521.79 2047.66,1524.62C2051.55,1531.03 2050.12,1543.49 2038.9,1550.97C2029.24,1557.41 2015.79,1554.94 2008.32,1551.26C2005.69,1549.98 2003.76,1548.51 2002.7,1547.3L2001.55,1545.62L2000.97,1543.96C2000.43,1541.26 2002.18,1538.63 2004.88,1538.09C2007.16,1537.63 2009.38,1538.81 2010.35,1540.81C2011.23,1541.31 2015.79,1543.85 2019.69,1544.59C2024.13,1545.43 2029.28,1545.39 2033.37,1542.67C2038.32,1539.37 2040.36,1534.54 2039.59,1531C2039.41,1530.18 2039.11,1529.41 2038.42,1529.11C2037.36,1528.66 2036.01,1529.12 2034.31,1530.04C2032.3,1531.12 2029.82,1530.7 2028.28,1529.03C2026.73,1527.36 2026.52,1524.85 2027.76,1522.94C2028.24,1522.18 2031.38,1517.77 2029.61,1513.14C2028.82,1511.09 2027.03,1509.12 2023.9,1507.3C2023.21,1506.89 2022.24,1507.08 2021.16,1507.24C2019.13,1507.55 2016.86,1508.32 2014.55,1509.27C2012.03,1510.31 2009.48,1511.58 2007.13,1512.85C2004.15,1514.75 2000.81,1516.74 1997.05,1518.83C1997.03,1518.85 1997,1518.86 1996.98,1518.87C1994.59,1520.2 1991.57,1519.35 1990.22,1516.96C1988.87,1514.58 1989.7,1511.55 1992.07,1510.19C1992.09,1510.17 1992.11,1510.16 1992.14,1510.15C1993.31,1509.46 1997.26,1506.9 2002.14,1504.24C2020.48,1492.63 2021.5,1486.65 2021.66,1483.92C2021.81,1481.63 2021.04,1477.29 2019.4,1473.67C2018.59,1471.87 2017.67,1470.15 2016.21,1469.46C2015.5,1469.12 2014.68,1469.4 2013.69,1469.98C2011.35,1471.36 2008.77,1474.15 2005.74,1478.69C2004.57,1480.44 2002.42,1481.26 2000.38,1480.75C1998.33,1480.23 1996.83,1478.49 1996.63,1476.39C1996.22,1472.1 1995.86,1467.06 1994.48,1462.99C1993.81,1461.01 1993.02,1459.23 1991.39,1458.41C1989.6,1457.51 1987.18,1457.9 1983.76,1459.27C1979.25,1461.07 1976.36,1463.23 1974.77,1465.92C1972.3,1470.09 1972.94,1475.16 1974.08,1480.69C1975.68,1488.46 1978.58,1496.96 1979.49,1505.47C1979.77,1508.05 1978.02,1510.41 1975.47,1510.9C1972.92,1511.39 1970.42,1509.84 1969.73,1507.33C1967.13,1497.97 1965.42,1487.82 1951.13,1479.87C1950.54,1479.89 1948.73,1479.98 1947.36,1480.31C1944.17,1481.08 1940.22,1482.69 1938.43,1486.02C1937.33,1488.04 1937.29,1490.68 1938.55,1494.04C1939.19,1495.75 1938.85,1497.67 1937.66,1499.05C1936.47,1500.43 1934.62,1501.05 1932.84,1500.67C1928.22,1499.68 1925.31,1499.79 1923.63,1501.28C1922.19,1502.56 1922.12,1504.66 1922.25,1506.56C1922.4,1508.65 1923.52,1511.48 1923.79,1512.12C1927.92,1515 1931.39,1516.54 1934.45,1517.06C1935.07,1516.83 1935.73,1516.59 1936.44,1516.35C1945.21,1513.32 1947.58,1510.3 1955.13,1509.18C1957.51,1508.83 1959.8,1510.23 1960.58,1512.5C1961.36,1514.78 1960.4,1517.29 1958.3,1518.47C1952.08,1521.96 1946.1,1526.75 1938.16,1527.2C1937.41,1527.24 1936.63,1527.25 1935.83,1527.22C1929.55,1529.78 1929.01,1531.44 1921.41,1536.51C1920.35,1537.22 1920.24,1538.38 1920.41,1539.57C1920.62,1541.09 1921.29,1542.69 1922.15,1544.22C1923.59,1546.77 1925.63,1549.13 1927.69,1550.68C1928.21,1551.07 1928.95,1551.45 1929.48,1551.7L1930.18,1550.45L1931.73,1549.25L1933.29,1548.77L1935.09,1548.85L1936.31,1549.3L1937.5,1550.15L1938.61,1551.71L1939.12,1553.29C1939.49,1554.89 1940.12,1559.53 1941.66,1570.29C1941.7,1570.61 1941.82,1571 1941.9,1571.24C1942.33,1571.18 1943.23,1571.04 1943.84,1570.8C1944.7,1570.45 1945.61,1569.98 1946.53,1569.4C1951.26,1566.43 1956.33,1560.97 1959.18,1555.26C1960.76,1552.07 1961.74,1548.83 1961.02,1545.99C1960.35,1543.32 1961.96,1540.6 1964.63,1539.93C1967.3,1539.25 1970.02,1540.87 1970.69,1543.54C1972.12,1549.19 1970.44,1555.93 1966.77,1562.17C1961.71,1570.78 1953.02,1578.3 1946.39,1580.48C1942.85,1581.64 1939.67,1581.44 1937.22,1580.19C1934.62,1578.85 1932.43,1576.28 1931.78,1571.7C1931.21,1567.71 1930.74,1564.48 1930.37,1561.98C1929.42,1562 1928.42,1561.88 1927.38,1561.59C1925.12,1560.98 1922.55,1559.51 1920.13,1557.37C1915.49,1553.29 1911.35,1546.73 1910.53,1540.96C1909.81,1535.86 1911.32,1531.25 1915.88,1528.21C1919.03,1526.11 1921.11,1524.54 1922.83,1523.26Z" style="fill:rgb(233,226,216);"/>
            <path d="M1953.57,1505.92C1951.08,1504.75 1950.01,1501.77 1951.18,1499.28C1952.36,1496.79 1955.33,1495.72 1957.82,1496.89C1967.74,1501.56 1968.91,1499.61 1976.46,1507.43C1979.06,1510.13 1978.72,1510.24 1981.87,1512.48C1984.11,1514.09 1984.63,1517.2 1983.03,1519.44C1981.43,1521.68 1978.31,1522.2 1976.07,1520.6C1972.14,1517.8 1972.52,1517.72 1969.28,1514.36C1965.98,1510.94 1964.37,1510.06 1962.01,1509.23C1959.92,1508.49 1957.42,1507.73 1953.57,1505.92Z" style="fill:rgb(233,226,216);"/>
            <path d="M1946.69,1515.12C1943.94,1514.97 1941.84,1512.61 1941.99,1509.86C1942.15,1507.11 1944.5,1505.01 1947.25,1505.16C1963.05,1506.05 1971.37,1513.44 1972.35,1513.99C1974.76,1515.33 1975.63,1518.37 1974.29,1520.77C1972.96,1523.18 1969.92,1524.05 1967.51,1522.71C1966.69,1522.25 1959.84,1515.86 1946.69,1515.12Z" style="fill:rgb(233,226,216);"/>
            <path d="M1975.96,1508.94C1979.43,1498.51 1979.23,1497.61 1983.53,1485.5C1984.45,1482.93 1987.26,1481.57 1989.84,1482.45C1992.42,1483.33 1993.82,1486.12 1992.98,1488.71C1991.66,1492.77 1990.91,1494.28 1989.71,1499.74C1990.67,1499.12 1991.76,1498.44 1993.01,1497.66C1995.16,1496.32 1997.98,1496.81 1999.56,1498.8C2001.13,1500.78 2000.97,1503.63 1999.17,1505.42C1995.67,1508.93 1992.85,1511.95 1990.8,1514.22C2004.43,1517.42 2009.35,1523.83 2011.51,1526.68C2011.88,1526.89 2012.23,1527.16 2012.55,1527.48C2014.49,1529.42 2014.49,1532.58 2012.55,1534.53L2011.01,1535.6L2009.55,1536.03L2007.45,1535.88L2005.65,1535L2004.19,1533.53C2002.87,1531.87 1999.67,1527.05 1989.87,1524.31C1991.61,1529.78 1991.98,1534.01 1994.45,1544.8C1995.02,1547.29 1993.63,1549.8 1991.22,1550.63C1988.82,1551.46 1986.17,1550.35 1985.08,1548.05C1984.31,1546.43 1983.68,1544.86 1983.15,1543.34C1983.11,1544.08 1983.07,1544.84 1983.05,1545.6C1982.98,1548.31 1980.75,1550.47 1978.04,1550.45C1975.33,1550.44 1973.12,1548.26 1973.08,1545.54C1972.88,1533.03 1974.54,1530.81 1970.36,1522.32C1967.66,1525.53 1963.51,1530.8 1956.98,1539.09C1955.32,1541.19 1952.31,1541.61 1950.14,1540.05C1947.97,1538.49 1947.42,1535.49 1948.89,1533.26C1953.88,1525.7 1959.15,1516.45 1963.53,1511.72C1966.73,1508.27 1970.05,1506.92 1972.57,1507.15C1973.95,1507.28 1975.14,1507.96 1975.96,1508.94ZM2007.87,1526.15C2007.04,1526.31 2006.25,1526.72 2005.49,1527.48C2006.17,1526.8 2007,1526.35 2007.87,1526.15Z" style="fill:rgb(233,226,216);"/>
            <path d="M2054.41,1520.22C2052.93,1522.38 2050.01,1523.04 2047.73,1521.67C2045.65,1520.42 2044.81,1517.88 2045.62,1515.68C2043.8,1514.04 2043.42,1511.26 2044.85,1509.17C2046.36,1506.96 2060.35,1476.28 2076.92,1456.66C2084.86,1447.26 2093.56,1440.45 2101.71,1439.1C2107.23,1438.17 2110.3,1439.88 2111.86,1441.85C2113.5,1443.9 2114.12,1447.2 2112.69,1451.36C2109.21,1461.46 2091.57,1481.04 2087.92,1485.73C2078.5,1497.84 2066.13,1509.23 2059.07,1515.76C2056.83,1517.83 2054.67,1519.97 2054.41,1520.22ZM2060.22,1501.03C2066.49,1495.02 2073.93,1487.48 2080.05,1479.6C2082.53,1476.42 2091.91,1466.05 2098.27,1456.88C2100.02,1454.35 2101.54,1451.92 2102.55,1449.8C2102.66,1449.56 2102.77,1449.3 2102.88,1449.02C2099.91,1449.64 2096.92,1451.38 2093.91,1453.75C2088.38,1458.12 2082.95,1464.61 2077.94,1471.66C2070.9,1481.57 2064.69,1492.59 2060.22,1501.03Z" style="fill:rgb(233,226,216);"/>
            <path d="M2025.06,1366.69C2025.12,1366.69 2025.17,1366.69 2025.23,1366.69C2027.98,1366.69 2030.22,1368.92 2030.22,1371.68C2030.22,1372.61 2030.16,1373.28 2030.08,1373.72L2029.55,1375.34L2028.67,1376.59L2028.65,1376.61C2028.55,1378.6 2027.27,1380.4 2025.31,1381.09C2014.31,1384.94 2008.27,1387.9 2002.69,1389.81C2000.61,1392.21 1998.18,1395.33 1994.89,1399.37C1993.01,1401.68 1990.4,1405.78 1989.62,1409.62C1989.4,1410.73 1989.25,1411.8 1989.71,1412.66C1990.11,1413.43 1991.04,1413.78 1992.36,1414.08C1994.19,1414.48 1995.62,1414.86 1996.81,1415.13C1997.62,1415.31 1998.18,1415.54 1998.78,1415.38C1999.73,1415.12 2000.63,1414.3 2002.19,1412.99C2003.8,1411.64 2006.09,1411.44 2007.91,1412.5C2009.73,1413.56 2010.69,1415.64 2010.3,1417.71C2009.62,1421.41 2009.29,1424.45 2009.58,1426.78C2009.63,1427.24 2009.71,1427.66 2009.84,1428.04C2009.91,1428.25 2009.91,1428.48 2010.08,1428.57C2010.5,1428.8 2011.07,1428.73 2011.77,1428.66C2013.32,1428.51 2015.18,1427.97 2017.41,1427.1C2029.89,1422.21 2032.02,1412.71 2032.78,1404.37C2033.46,1396.91 2033.54,1390.12 2035.82,1386.09C2037.17,1383.7 2040.22,1382.85 2042.61,1384.2C2045.01,1385.55 2045.86,1388.6 2044.51,1391C2043.78,1392.28 2043.59,1394.03 2043.39,1396.03C2043.11,1398.82 2043.02,1401.98 2042.71,1405.28C2041.66,1416.81 2038.29,1429.63 2021.04,1436.39C2013.58,1439.31 2008.44,1439.06 2005.27,1437.31C2002.72,1435.9 2000.92,1433.56 2000.06,1430.11C1999.72,1428.75 1999.54,1427.14 1999.53,1425.31C1997.3,1425.44 1994.71,1424.82 1990.2,1423.81C1985.23,1422.71 1982.42,1420.23 1980.89,1417.34C1979.42,1414.56 1979.13,1411.17 1979.85,1407.64C1980.95,1402.21 1984.49,1396.35 1987.15,1393.08C1987.38,1392.79 1987.62,1392.51 1987.84,1392.23C1984.26,1392.26 1980,1392.03 1974.62,1391.53C1972.72,1391.35 1971.32,1391.33 1970.26,1391.16L1968.02,1390.51L1966.38,1389.54C1965.06,1388.5 1963.81,1386.83 1962.94,1383.33C1960.56,1373.83 1961.38,1368.07 1963.92,1364.48C1965.72,1361.94 1968.44,1360.16 1972.29,1359.1C1976.4,1357.96 1982.13,1357.63 1989.49,1357.29C2010.69,1356.33 2020.51,1362.71 2025.06,1366.69ZM1997.47,1380.99C2000.69,1377.65 2003.36,1375.65 2006.53,1374.31C2008.99,1373.27 2011.79,1372.62 2015.47,1372.14C2010.95,1369.43 2003.19,1366.66 1989.94,1367.26C1984.49,1367.51 1980.03,1367.69 1976.59,1368.34C1974.52,1368.73 1972.91,1369.05 1972.06,1370.25C1971.57,1370.94 1971.45,1371.89 1971.43,1373.09C1971.4,1375.16 1971.82,1377.72 1972.62,1380.91C1972.65,1381.06 1972.7,1381.22 1972.74,1381.37C1973.5,1381.42 1974.59,1381.51 1975.56,1381.6C1986.37,1382.61 1992.24,1382.33 1997.47,1380.99Z" style="fill:rgb(233,226,216);"/>
            <path d="M2005.89,1328.71C2004.57,1321.62 2005.68,1314.92 2009.91,1307.35L2011.19,1305.73L2013.35,1304.23C2016.33,1302.72 2022.93,1301.21 2030.65,1307.83C2030.87,1307.44 2031.09,1307.09 2031.33,1306.75C2033.44,1303.79 2036.52,1302.36 2043.25,1299.25C2046.06,1297.96 2049.34,1298.07 2052.67,1299.89C2057.59,1302.59 2063.11,1310 2065.36,1320.49C2067.4,1330 2064.9,1338.22 2061.28,1345.5C2058.24,1351.59 2054.31,1356.88 2052.68,1361.77C2051.81,1364.38 2048.98,1365.79 2046.37,1364.92C2043.76,1364.05 2042.35,1361.22 2043.22,1358.61C2044.65,1354.3 2047.62,1349.65 2050.49,1344.53C2053.99,1338.28 2057.45,1331.17 2055.61,1322.58C2054.49,1317.37 2052.42,1313.13 2050.04,1310.48C2049.33,1309.68 2048.61,1309.04 2047.87,1308.64C2047.69,1308.54 2047.38,1308.43 2047.25,1308.39C2045.16,1309.35 2043.49,1310.07 2042.13,1310.73C2040.92,1311.32 2040.05,1311.7 2039.46,1312.53C2038.59,1313.76 2038.2,1315.57 2037.56,1318.57C2037.15,1320.5 2035.64,1322.01 2033.71,1322.41C2031.77,1322.82 2029.78,1322.04 2028.63,1320.44C2025.63,1316.26 2022.96,1314.1 2020.64,1313.27C2019.74,1312.94 2018.65,1313.02 2018.15,1313.09C2014.13,1320.82 2014.92,1327.37 2018.57,1335.4C2021.51,1341.87 2026.15,1349.16 2031.8,1358.31C2031.81,1358.33 2031.82,1358.34 2031.82,1358.35C2033.27,1360.69 2032.55,1363.75 2030.22,1365.2C2027.89,1366.66 2024.82,1365.95 2023.36,1363.63C2023.35,1363.62 2023.34,1363.61 2023.34,1363.59C2022.33,1362 2017.15,1353.78 2011.13,1346.65C2007.68,1342.57 2004.06,1338.74 2000.8,1337.3C1998.57,1337.09 1992.81,1337.21 1987.54,1338.62C1984.66,1339.38 1981.86,1340.42 1980.32,1342.38C1980.2,1342.52 1980.31,1342.73 1980.33,1342.93C1980.38,1343.53 1980.57,1344.15 1980.82,1344.8C1981.68,1346.99 1983.29,1349.24 1985.05,1351.02C1986.15,1352.14 1988.08,1353.33 1988.66,1353.68C1990.95,1353.15 1993.36,1354.31 1994.34,1356.54C1995.45,1359.06 1994.3,1362 1991.78,1363.11L1989.51,1363.7L1987.92,1363.71L1986.49,1363.48C1983.95,1362.86 1980.76,1360.89 1977.93,1358.01C1974.66,1354.68 1971.83,1350.2 1970.81,1346.2C1969.83,1342.37 1970.39,1338.86 1972.47,1336.21C1976.12,1331.58 1983.4,1328.93 1990.19,1327.91C1996.96,1326.89 2003.07,1327.47 2004.06,1327.86C2004.65,1328.09 2005.27,1328.38 2005.89,1328.71Z" style="fill:rgb(233,226,216);"/>
            <path d="M2027.34,1376.01C2024.26,1371.68 2022.81,1369.22 2022.34,1368.08L2021.95,1366.86L2021.82,1365.39L2022.4,1363.24L2023.74,1361.6L2025.03,1360.85L2026.76,1360.48L2028.11,1360.6L2029.21,1361.01C2028.12,1354.72 2027.45,1351.33 2027.05,1349.4C2026.88,1348.99 2026.78,1348.55 2026.73,1348.1L2026.65,1347.43C2026.37,1344.79 2028.19,1342.39 2030.81,1341.97C2032.3,1341.72 2033.76,1342.17 2034.84,1343.08C2035.04,1342.03 2035.24,1340.86 2035.45,1339.56C2035.87,1336.92 2038.3,1335.08 2040.95,1335.39C2043.61,1335.69 2045.55,1338.04 2045.35,1340.71C2044.71,1349.3 2045.92,1352.48 2047.71,1356.93C2048.21,1358.17 2048.74,1359.48 2049.29,1360.98C2057.22,1354.45 2061.97,1351.09 2063.34,1350.11C2065.44,1348.63 2068.32,1348.97 2070,1350.91C2071.68,1352.85 2071.62,1355.75 2069.85,1357.61C2068.68,1358.84 2067.66,1359.91 2066.74,1360.85C2075.3,1357.91 2078.03,1357.87 2079.05,1357.82C2088.24,1357.39 2094.59,1356.09 2098.73,1354.09C2101.33,1352.84 2102.86,1351.51 2103.12,1349.77C2103.48,1347.41 2101.91,1345.01 2099.94,1342.77C2096.22,1338.53 2090.45,1335.02 2085.89,1334.6C2082.24,1334.27 2079.45,1333.77 2077.14,1333.43C2075.13,1333.14 2073.73,1332.79 2072.26,1333.65C2070.91,1334.45 2069.58,1335.93 2067.77,1338.28C2066.09,1340.46 2062.96,1340.86 2060.78,1339.18C2058.6,1337.5 2058.19,1334.37 2059.87,1332.19C2062.74,1328.47 2065.05,1326.32 2067.2,1325.06C2069.71,1323.58 2072.11,1323.09 2074.97,1323.2C2077.83,1323.3 2081.36,1324.17 2086.79,1324.67C2093.42,1325.27 2102.03,1330.03 2107.44,1336.18C2111.55,1340.87 2113.73,1346.33 2112.98,1351.27C2112.43,1354.89 2110.44,1358.43 2106.13,1361.33C2104.27,1362.59 2101.87,1363.74 2098.86,1364.72C2104.83,1367.21 2109.97,1371.28 2113.03,1377.61C2115.05,1381.79 2116.19,1388.45 2115.39,1394.33C2114.78,1398.84 2113.01,1402.86 2110.14,1405.45C2107.14,1408.16 2102.54,1409.77 2096.07,1407.96C2096.2,1410.54 2095.71,1412.64 2094.88,1414.31C2092.76,1418.56 2088.05,1421.04 2082.05,1421.61C2072.98,1422.45 2060.87,1419.1 2056.95,1417.14C2046.66,1411.99 2039.25,1398.44 2037.31,1389.39C2037.11,1388.43 2036.96,1387.5 2036.88,1386.63C2036.77,1386.66 2036.65,1386.69 2036.54,1386.72C2036.38,1386.76 2036.22,1386.79 2036.06,1386.81C2034.31,1391.23 2033.33,1393.48 2029.93,1401.04C2028.87,1403.4 2026.18,1404.56 2023.74,1403.71C2021.3,1402.86 2019.91,1400.29 2020.54,1397.78C2023.41,1386.35 2025.69,1379.78 2027.34,1376.01ZM2067.27,1371.95C2067.41,1372.04 2067.55,1372.13 2067.69,1372.23C2069.89,1373.7 2070.56,1376.63 2069.22,1378.91C2067.88,1381.19 2064.99,1382.02 2062.64,1380.81C2061.63,1380.29 2060.75,1379.81 2059.97,1379.36C2059.06,1378.99 2058.14,1378.74 2057.24,1378.59C2064.54,1383.93 2066.06,1385.95 2066.99,1387.1C2068.64,1389.17 2068.39,1392.17 2066.42,1393.94C2064.45,1395.7 2061.44,1395.62 2059.57,1393.75C2058.9,1393.08 2054.49,1388.62 2049.88,1386.21C2048.93,1385.72 2047.98,1385.31 2047.07,1385.12C2046.96,1385.1 2046.86,1385.07 2046.76,1385.04C2046.77,1385.3 2046.78,1385.57 2046.81,1385.81C2046.98,1387.14 2047.36,1388.7 2047.92,1390.36C2050.1,1396.82 2054.82,1404.92 2061.41,1408.22C2063.89,1409.46 2070.55,1411.33 2076.78,1411.71C2079.32,1411.86 2081.78,1411.79 2083.79,1411.19C2084.74,1410.9 2085.64,1410.61 2085.99,1409.79C2086.27,1409.12 2086.21,1408.29 2086,1407.25C2085.64,1405.42 2084.74,1403.26 2083.28,1400.67C2082.14,1398.65 2082.55,1396.1 2084.27,1394.54C2085.98,1392.98 2088.55,1392.8 2090.46,1394.12C2094.45,1396.88 2097.64,1398.37 2100.23,1398.73C2101.62,1398.91 2102.7,1398.73 2103.45,1398.04C2104.73,1396.89 2105.23,1394.99 2105.51,1392.99C2106.03,1389.11 2105.38,1384.7 2104.04,1381.94C2101.14,1375.92 2095.12,1373.35 2088.98,1372.14C2080.64,1370.51 2071.85,1371.41 2067.27,1371.95Z" style="fill:rgb(233,226,216);"/>
            <path d="M2021.11,1390.29C2020.38,1390.54 2019.57,1390.62 2018.76,1390.49L2017.22,1390.02L2015.73,1388.9L2015.03,1387.89L2014.63,1386.91L2014.48,1384.9L2014.97,1383.31L2015.99,1381.93L2017.05,1381.16L2018.64,1380.62C2018.9,1380.57 2020.39,1380.28 2023.37,1378.42C2025.7,1376.96 2028.78,1377.67 2030.24,1380C2031.7,1382.34 2030.99,1385.42 2028.66,1386.88C2025.03,1389.14 2022.37,1389.99 2021.11,1390.29ZM2022.61,1381.65C2022.18,1381.27 2021.45,1380.82 2020.29,1380.64C2021.17,1380.77 2021.96,1381.13 2022.61,1381.65Z" style="fill:rgb(233,226,216);"/>
        </g>
    </g>
</svg>
