<?xml version="1.0" encoding="UTF-8" standalone="no"?><!DOCTYPE svg PUBLIC "-//W3C//DTD SVG 1.1//EN" "http://www.w3.org/Graphics/SVG/1.1/DTD/svg11.dtd"><svg width="100%" height="100%" viewBox="0 0 58 104" version="1.1" xmlns="http://www.w3.org/2000/svg" xmlns:xlink="http://www.w3.org/1999/xlink" xml:space="preserve" xmlns:serif="http://www.serif.com/" style="fill-rule:evenodd;clip-rule:evenodd;stroke-linejoin:round;stroke-miterlimit:2;"><g id="Layer5"><path d="M25.231,15.282c0.116,-0.651 0.739,-1.084 1.389,-0.968c0.65,0.117 1.084,0.74 0.967,1.39c-1.934,10.798 -2.645,10.741 -1.863,21.694c1.32,18.478 -0.262,42.525 6.252,62.066c0.209,0.627 -0.13,1.306 -0.757,1.515c-0.627,0.208 -1.305,-0.131 -1.514,-0.758c-6.576,-19.727 -5.037,-43.998 -6.369,-62.652c-0.804,-11.252 -0.092,-11.195 1.895,-22.287Z" style="fill:#435576;"/><path d="M28.081,30.208c-0.001,0.004 -0.002,0.008 -0.003,0.011c-0.726,2.566 -0.918,14.584 -0.94,15.756c-0.012,0.66 -0.558,1.187 -1.218,1.175c-0.661,-0.012 -1.187,-0.558 -1.175,-1.219c0.019,-1.072 0.203,-10.963 0.768,-15.003c0.147,-1.055 0.376,-1.788 0.566,-2.078l0.344,-0.374l0.473,-0.229c0.64,-0.164 1.292,0.223 1.456,0.863c0.103,0.403 -0.012,0.811 -0.271,1.098Z" style="fill:#435576;"/><path d="M29.101,33.53c-0.088,-0.441 0.078,-0.914 0.463,-1.199c0.531,-0.392 1.281,-0.279 1.674,0.252l0.222,0.453l0.056,0.553c-0.018,0.292 -0.153,0.764 -0.409,1.455c-1.112,2.999 -4.504,11.669 -2.892,34.24c0.827,11.583 3.778,28.655 4.36,31.371c0.008,0.04 0.018,0.081 0.026,0.118c0.065,0.147 0.101,0.31 0.101,0.482l-0.059,0.386l-0.178,0.348l-0.233,0.238l-0.257,0.15l-0.268,0.08l-0.279,0.016l-0.293,-0.055l-0.3,-0.145l-0.367,-0.387l-0.12,-0.267c-0.023,-0.069 -0.063,-0.225 -0.114,-0.462c-0.588,-2.745 -3.571,-19.998 -4.407,-31.703c-1.837,-25.716 2.697,-33.83 3.274,-35.924Zm1.306,67.246c-0.052,0.113 -0.099,0.269 -0.099,0.479c-0,-0.171 0.035,-0.332 0.099,-0.479Z" style="fill:#435576;"/><path d="M54.573,27.945c0.121,-0.38 0.247,-0.761 0.377,-1.144c0.205,-0.6 0.842,-0.937 1.452,-0.768c0.611,0.169 0.985,0.785 0.852,1.405c-0.06,0.278 -0.175,0.631 -0.34,1.048c-2.873,8.903 -3.084,16.854 -3.627,24.27c-0.583,7.961 -1.55,15.32 -6.246,22.578c-11.365,17.564 -12.068,22.691 -12.346,24.896c-0.083,0.653 -0.676,1.117 -1.329,1.039c-0.654,-0.078 -1.122,-0.668 -1.048,-1.322c1.09,-9.742 1.066,-19.738 4.269,-30.262c3.154,-10.363 6.287,-14.931 8.924,-18.684c2.312,-3.291 4.232,-5.915 5.392,-11.626c-4.696,7.642 -10.426,16.188 -11.117,17.155c-4.144,5.802 -7.117,19.787 -7.972,28.768c-0.217,2.283 -0.297,4.24 -0.213,5.65c0.044,0.742 0.104,1.3 0.264,1.606c0.306,0.586 0.08,1.31 -0.506,1.616c-0.585,0.306 -1.309,0.079 -1.615,-0.506c-0.205,-0.392 -0.378,-1.01 -0.47,-1.832c-0.172,-1.527 -0.115,-3.906 0.157,-6.76c0.89,-9.355 4.09,-23.89 8.407,-29.934c0.802,-1.122 8.459,-12.558 13.295,-20.783c1.56,-2.654 2.835,-4.949 3.44,-6.41Zm-2.197,9.006c0.013,0 0.026,0.001 0.04,0.002c0.005,-0.032 0.01,-0.063 0.015,-0.095c-0.018,0.031 -0.037,0.062 -0.055,0.093Zm-1.01,9.012c-1.092,2.453 -2.416,4.308 -3.896,6.414c-2.541,3.617 -5.553,8.02 -8.592,18.005c-2.082,6.839 -2.769,13.454 -3.303,19.919c1.839,-3.799 4.764,-9.016 9.456,-16.268c4.458,-6.89 5.315,-13.894 5.868,-21.452c0.158,-2.159 0.291,-4.361 0.467,-6.618Z" style="fill:#435576;"/><path d="M48.461,52.211c-0.004,-0.099 0.005,-0.2 0.026,-0.301l0.217,-0.471l0.372,-0.322l0.308,1.19c0.161,0.018 0.328,0.036 0.489,0.052l0.277,-1.286l0.354,0.244l0.211,0.286l0.117,0.332l0.022,0.186c0,0.017 0.003,0.116 -0,0.292c-0.026,1.403 -0.424,8.926 -6.042,18.001c-0.856,1.383 -5.487,9.939 -6.018,11.677c-2.086,6.827 -1.677,6.892 -2.547,11.024c-0.136,0.646 -0.772,1.06 -1.418,0.924c-0.647,-0.136 -1.061,-0.771 -0.925,-1.418c0.886,-4.209 0.475,-4.274 2.601,-11.23c0.556,-1.818 5.375,-10.789 6.271,-12.237c5.244,-8.47 5.66,-15.476 5.684,-16.785c0.001,-0.072 0.001,-0.134 0.001,-0.158Z" style="fill:#435576;"/><path d="M0.019,45.752c-0.118,-0.65 0.314,-1.274 0.964,-1.392c0.65,-0.118 1.274,0.314 1.392,0.964c1.135,6.242 6.967,23.154 12.738,34.675c2.398,4.787 4.749,8.639 6.767,10.279c1.396,1.134 2.753,2.863 4.004,4.515c1.119,1.48 2.136,2.898 3.041,3.612c1.137,0.897 1.513,1.641 1.808,2.322c0.12,0.277 0.205,0.544 0.401,0.806c0.396,0.528 0.289,1.279 -0.239,1.676c-0.529,0.396 -1.28,0.289 -1.676,-0.24c-0.254,-0.339 -0.418,-0.674 -0.569,-1.024c-0.208,-0.482 -0.382,-1.009 -1.208,-1.661c-0.831,-0.655 -1.768,-1.807 -2.762,-3.114c-1.327,-1.744 -2.78,-3.791 -4.309,-5.034c-2.183,-1.773 -4.805,-5.887 -7.399,-11.065c-5.877,-11.733 -11.797,-28.962 -12.953,-35.319Z" style="fill:#435576;"/><path d="M2.571,44.351c0.028,0.039 0.069,0.095 0.103,0.141c1.564,2.033 9.678,10.854 11.194,13.584c1.63,2.934 5.387,7.046 10.383,21.701c0.297,0.87 2.339,6.863 4.173,11.143c0.733,1.709 1.407,3.135 1.925,3.756c0.423,0.507 0.354,1.263 -0.154,1.686c-0.507,0.423 -1.263,0.354 -1.686,-0.154c-1.913,-2.296 -6.086,-14.374 -6.524,-15.658c-4.907,-14.396 -8.609,-18.43 -10.209,-21.311c-1.487,-2.675 -9.467,-11.295 -10.999,-13.288c-0.238,-0.309 -0.367,-0.541 -0.412,-0.651l-0.088,-0.353l0.008,-0.314c0.101,-0.653 0.713,-1.101 1.366,-1c0.425,0.066 0.764,0.349 0.92,0.718Z" style="fill:#435576;"/><path d="M4.696,49.149c0.1,0.267 0.382,1 0.693,1.664c2.525,5.402 9.896,18.585 10.537,20.187c8.952,22.381 9.964,21.816 12.737,25.745c0.381,0.539 0.252,1.287 -0.287,1.668c-0.54,0.381 -1.288,0.252 -1.669,-0.288c-2.827,-4.005 -3.877,-3.419 -13.004,-26.236c-0.72,-1.8 -9.949,-18.238 -11.22,-21.783c-0.12,-0.334 -0.182,-0.596 -0.202,-0.769l0.034,-0.562l0.112,-0.284l0.149,-0.217l0.406,-0.314c0.594,-0.289 1.311,-0.04 1.599,0.554c0.099,0.205 0.135,0.424 0.115,0.635Zm-0.505,0.868c-0.051,0.036 -0.106,0.068 -0.164,0.096c0.057,-0.027 0.112,-0.059 0.164,-0.096Z" style="fill:#435576;"/><path d="M22.541,47.805l-0.028,-0.018c-0.65,-0.414 -3.331,-1.993 -5.558,-5.881c-2.386,-4.166 -4.293,-11.071 -2.323,-22.234c0.341,-1.932 0.801,-2.787 1.268,-3.634c0.375,-0.68 0.759,-1.351 1.062,-2.87c1.669,-8.34 4.977,-8.959 11.258,-12.824c0.563,-0.347 1.301,-0.171 1.647,0.392c0.347,0.562 0.171,1.3 -0.392,1.647c-5.582,3.435 -8.682,3.843 -10.165,11.255c-0.376,1.882 -0.849,2.715 -1.314,3.556c-0.372,0.675 -0.735,1.357 -1.006,2.894c-1.827,10.351 -0.17,16.765 2.042,20.628c1.912,3.337 4.209,4.696 4.767,5.051l0.332,0.253c0.467,0.467 0.467,1.226 -0,1.693c-0.434,0.434 -1.12,0.465 -1.59,0.092Z" style="fill:#435576;"/><path d="M19.573,43.453c0.649,0.121 1.077,0.747 0.956,1.397c-0.122,0.649 -0.748,1.077 -1.397,0.956c-4.156,-0.779 -11.241,-5.908 -12.4,-16.916c-0.442,-4.201 0.631,-8.776 1.053,-13.082c0.378,-3.857 0.245,-7.497 -2.557,-10.299c-0.353,-0.353 -0.45,-0.887 -0.244,-1.341c0.205,-0.454 0.671,-0.733 1.169,-0.7c0.332,0.022 2.02,0.135 3.683,0.64c1.248,0.38 2.464,0.991 3.225,1.867c3.853,4.431 5.149,8.976 5.396,9.84c0.181,0.635 -0.187,1.298 -0.822,1.479c-0.635,0.182 -1.299,-0.186 -1.48,-0.822c-0.224,-0.783 -1.404,-4.905 -4.901,-8.926c-0.491,-0.565 -1.308,-0.902 -2.114,-1.147c-0.114,-0.034 -0.227,-0.067 -0.34,-0.097c1.584,2.873 1.713,6.215 1.368,9.739c-0.407,4.148 -1.481,8.552 -1.055,12.598c1.002,9.518 6.867,14.14 10.46,14.814Z" style="fill:#435576;"/><path d="M12.342,5.712c-0.109,0.651 -0.726,1.092 -1.378,0.984c-0.651,-0.109 -1.092,-0.726 -0.983,-1.378c0.161,-0.969 0.629,-1.674 1.276,-2.129c0.619,-0.434 1.427,-0.647 2.368,-0.552c2.087,0.211 5.114,2.13 7.467,6.365c0.321,0.578 0.113,1.307 -0.465,1.628c-0.577,0.321 -1.307,0.112 -1.627,-0.465c-1.827,-3.288 -3.995,-4.982 -5.616,-5.146c-0.294,-0.03 -0.556,-0.007 -0.75,0.129c-0.166,0.116 -0.251,0.316 -0.292,0.564Z" style="fill:#435576;"/><path d="M11.194,17.104c0.017,-0.66 0.567,-1.183 1.227,-1.166c0.661,0.016 1.183,0.566 1.167,1.227c-0.265,10.506 -2.601,14.553 4.464,22.865c0.428,0.503 0.366,1.259 -0.137,1.687c-0.503,0.428 -1.259,0.367 -1.687,-0.137c-7.578,-8.914 -5.318,-13.206 -5.034,-24.476Z" style="fill:#435576;"/><path d="M27.434,45.783l-0.029,0.077c0.008,-0.033 0.018,-0.058 0.029,-0.077Zm0,-0l0.073,-0.19l0.184,-0.259l0.034,-0.034l0.028,-0.029c0.448,-0.457 4.461,-4.518 5.332,-6.316c3.058,-6.321 3.441,-16.978 1.799,-25.369c-0.648,-3.309 -1.61,-6.265 -2.875,-8.443c-0.762,-1.313 -1.62,-2.334 -2.606,-2.914c-0.569,-0.335 -0.759,-1.069 -0.424,-1.639c0.334,-0.569 1.069,-0.76 1.638,-0.425c1.292,0.76 2.464,2.055 3.463,3.776c1.377,2.372 2.448,5.582 3.153,9.185c1.74,8.89 1.247,20.175 -1.993,26.872c-0.941,1.944 -5.191,6.349 -5.759,6.93c-0.012,0.013 -0.024,0.025 -0.036,0.038l-0.008,0.007l-0.011,0.011l0.007,-0.007l-0.113,0.104l-0.375,0.207l-0.38,0.062c0.001,0.507 -0.893,-1.962 -1.131,-1.567Z" style="fill:#435576;"/><path d="M30.686,43.943c5.751,-1.725 7.999,-6.102 8.98,-10.064c0.776,-3.134 0.802,-6.035 1.039,-7.395c1.886,-10.847 2.086,-12.955 5.707,-16.964c-2.678,0.84 -6.148,2.65 -8.199,6.594c-0.304,0.587 -1.028,0.815 -1.614,0.51c-0.586,-0.305 -0.815,-1.028 -0.51,-1.614c3.965,-7.624 12.435,-8.476 13.725,-8.6c0.503,-0.049 0.982,0.224 1.197,0.681c0.216,0.456 0.121,0.999 -0.236,1.357c-5.857,5.857 -5.594,6.274 -7.711,18.446c-0.242,1.391 -0.28,4.356 -1.074,7.56c-1.27,5.131 -4.384,10.823 -12.809,12.297c-0.415,0.072 -0.838,-0.079 -1.113,-0.398c-0.275,-0.32 -0.362,-0.76 -0.229,-1.16c0.323,-0.966 0.13,-1.027 0.954,-1.729c0.503,-0.428 1.259,-0.367 1.688,0.135c0.089,0.106 0.157,0.222 0.205,0.344Z" style="fill:#435576;"/><path d="M38.994,29.043c0.139,-0.646 0.777,-1.056 1.423,-0.917c0.646,0.14 1.056,0.778 0.917,1.424c-1.859,8.581 -3.336,10.169 -7.426,14.94c-0.43,0.502 -1.186,0.56 -1.687,0.13c-0.502,-0.43 -0.56,-1.186 -0.13,-1.688c3.802,-4.436 5.175,-5.911 6.903,-13.889Z" style="fill:#435576;"/><path d="M37.949,20.73c0.034,-0.659 0.598,-1.167 1.258,-1.132c0.66,0.035 1.167,0.599 1.133,1.258c-0.021,0.398 0.536,3.691 -2.298,12.51c-0.202,0.629 -0.877,0.975 -1.506,0.773c-0.629,-0.202 -0.976,-0.877 -0.773,-1.506c2.697,-8.39 2.166,-11.524 2.186,-11.903Z" style="fill:#435576;"/></g></svg>