<svg width="1272" height="307" viewBox="0 0 1272 307" fill="none" xmlns="http://www.w3.org/2000/svg">
<path d="M1271.75 198C1264.75 190.333 1232.95 174 1161.75 170C1090.55 166 1000.75 201.667 964.752 220C910.086 234 789.152 261.6 742.752 260C684.752 258 584.752 254 531.752 241C489.352 230.6 469.419 226.667 464.752 226C426.419 214 333.552 189.4 268.752 187C187.752 184 144.752 183 54.7523 226C1.76196 251.318 -17.6454 276.382 -22.6049 292.903L-23.2477 307C-24.3037 303.656 -24.384 298.829 -22.6049 292.903L-9.24768 0H1271.75V198Z" fill="#E9EDC9"/>
</svg>
