<svg width="1280" height="215" viewBox="0 0 1280 215" fill="none" xmlns="http://www.w3.org/2000/svg">
<path d="M1055.77 200.662C1160.34 201.773 1249.49 145.581 1281 117.346V34.0302H0V186.776C4.69238 195.108 32.9802 212.326 108.593 214.548C184.207 216.77 274.165 183.073 309.692 165.947C351.923 152.987 461.723 127.066 563.077 127.066C664.431 127.066 776.912 152.987 820.484 165.947C855.341 177.056 951.198 199.551 1055.77 200.662Z" fill="#435576" fill-opacity="0.5"/>
<path d="M1055.77 166.632C1160.34 167.743 1249.49 111.551 1281 83.3159V-4.57764e-05H0V152.746C4.69238 161.077 32.9802 178.296 108.593 180.518C184.207 182.74 274.165 149.043 309.692 131.917C351.923 118.957 461.723 93.0361 563.077 93.0361C664.431 93.0361 776.912 118.957 820.484 131.917C855.341 143.026 951.198 165.521 1055.77 166.632Z" fill="#435576"/>
</svg>
