<svg width="1280" height="215" viewBox="0 0 1280 215" fill="none" xmlns="http://www.w3.org/2000/svg">
<path d="M225.231 13.9907C120.659 12.8798 31.5055 69.0718 0 97.3066V180.623H1281V27.8767C1276.31 19.5451 1248.02 2.32644 1172.41 0.104679C1096.79 -2.11708 1006.84 31.5796 971.308 48.7057C929.077 61.6659 819.277 87.5864 717.923 87.5864C616.569 87.5864 504.088 61.6659 460.516 48.7057C425.659 37.5969 329.802 15.1016 225.231 13.9907Z" fill="#FEFAE0" fill-opacity="0.5"/>
<path d="M225.231 48.0209C120.659 46.9101 31.5055 103.102 0 131.337V214.653H1281V61.9069C1276.31 53.5753 1248.02 36.3567 1172.41 34.135C1096.79 31.9132 1006.84 65.6099 971.308 82.7359C929.077 95.6962 819.277 121.617 717.923 121.617C616.569 121.617 504.088 95.6962 460.516 82.7359C425.659 71.6271 329.802 49.1318 225.231 48.0209Z" fill="#FEFAE0"/>
</svg>
